STARTFONT 2.3
FONT -FontForge-Shadows Into Light-Book-R-Normal--32-320-72-72-P-132-ISO10646-1
SIZE 32 72 72  2
FONTBOUNDINGBOX 46 52 -6 -14
COMMENT "Generated by fontforge, http://fontforge.sourceforge.net"
COMMENT "Copyright (c) 2010, Kimberly Geswein (kimberlygeswein.com)"
STARTPROPERTIES 40
FOUNDRY "FontForge"
FAMILY_NAME "Shadows Into Light"
WEIGHT_NAME "Book"
SLANT "R"
SETWIDTH_NAME "Normal"
ADD_STYLE_NAME ""
PIXEL_SIZE 32
POINT_SIZE 320
RESOLUTION_X 72
RESOLUTION_Y 72
SPACING "P"
AVERAGE_WIDTH 132
CHARSET_REGISTRY "ISO10646"
CHARSET_ENCODING "1"
FONTNAME_REGISTRY ""
CHARSET_COLLECTIONS "ISO8859-2 ISO8859-9 ISO8859-4 ISO10646-1"
BITS_PER_PIXEL 2
FONT_NAME "ShadowsIntoLight"
FACE_NAME "Shadows Into Light"
COPYRIGHT "Copyright (c) 2010, Kimberly Geswein (kimberlygeswein.com)"
FONT_VERSION "001.000"
FONT_ASCENT 26
FONT_DESCENT 6
UNDERLINE_POSITION 0
UNDERLINE_THICKNESS 0
X_HEIGHT 19
CAP_HEIGHT 22
RAW_ASCENT 799
RAW_DESCENT 200
NORM_SPACE 14
RELATIVE_WEIGHT 40
RELATIVE_SETWIDTH 50
SUPERSCRIPT_X 0
SUPERSCRIPT_Y 15
SUPERSCRIPT_SIZE 20
SUBSCRIPT_X 0
SUBSCRIPT_Y 4
SUBSCRIPT_SIZE 20
AVG_LOWERCASE_WIDTH 121
AVG_UPPERCASE_WIDTH 154
ENDPROPERTIES
CHARS 352
STARTCHAR space
ENCODING 32
SWIDTH 450 0
DWIDTH 14 0
BBX 1 1 0 0
BITMAP
00
ENDCHAR
STARTCHAR exclam
ENCODING 33
SWIDTH 137 0
DWIDTH 4 0
BBX 4 27 0 0
BITMAP
30
30
30
70
70
70
70
70
70
70
70
74
74
B4
78
74
00
00
00
00
00
00
00
00
00
06
06
ENDCHAR
STARTCHAR quotedbl
ENCODING 34
SWIDTH 212 0
DWIDTH 7 0
BBX 5 10 1 16
BITMAP
4000
D140
D280
E280
A280
A280
A280
A280
6180
6000
ENDCHAR
STARTCHAR numbersign
ENCODING 35
SWIDTH 450 0
DWIDTH 14 0
BBX 14 18 1 3
BITMAP
00010000
00034000
01034000
07438000
0743C000
0383FD00
039BD000
2BFAC000
2F82C000
0382C2D0
0382EE40
0382F400
03CBE000
03F5D000
1BD0E000
7FC0A000
01806000
00800000
ENDCHAR
STARTCHAR dollar
ENCODING 36
SWIDTH 445 0
DWIDTH 14 0
BBX 14 29 0 -4
BITMAP
00060000
000A0000
000E0000
000E0000
000E5000
001FF400
007F4000
02FE0000
0B4E0000
2D0E0000
780E0000
B40E0000
F40F0000
BEAFE400
16AB5B80
000700D0
000700C0
00074280
00035A00
0003F800
000BD000
007FC000
0053C000
0002C000
0001C000
0001D000
0000E000
0000A000
00005000
ENDCHAR
STARTCHAR percent
ENCODING 37
SWIDTH 450 0
DWIDTH 14 0
BBX 14 25 0 0
BITMAP
00002C00
00003800
00007400
1F80B000
39A0E000
7421D000
7062C000
70C3C000
76838000
3E074000
040B0000
000A0000
000D0100
001D0BC0
001C0BE0
00280E60
00280DA0
00340ED0
00300FC0
00700A40
00600000
00900000
00900000
00800000
00800000
ENDCHAR
STARTCHAR ampersand
ENCODING 38
SWIDTH 356 0
DWIDTH 11 0
BBX 11 15 0 3
BITMAP
001800
001C00
001C00
001C00
001C00
001CB4
1FAEE0
35FF80
603E00
60BD00
62ED00
7B5D00
281D00
001D00
000400
ENDCHAR
STARTCHAR quotesingle
ENCODING 39
SWIDTH 155 0
DWIDTH 5 0
BBX 3 9 1 11
BITMAP
A0
F0
B0
B4
B4
70
70
70
30
ENDCHAR
STARTCHAR parenleft
ENCODING 40
SWIDTH 291 0
DWIDTH 9 0
BBX 9 27 0 0
BITMAP
000100
000380
000B00
002D00
007800
00B000
01D000
038000
074000
0A0000
1D0000
2C0000
280000
380000
740000
740000
700000
700000
700000
740000
340000
280000
1D0000
0E0000
078000
02E000
007D00
ENDCHAR
STARTCHAR parenright
ENCODING 41
SWIDTH 241 0
DWIDTH 8 0
BBX 6 24 1 0
BITMAP
D000
B400
2C00
0E00
0740
0280
01C0
00D0
00A0
00A0
00A0
0070
0070
0060
0060
00A0
00E0
01D0
02C0
0380
0740
0B00
0D00
1400
ENDCHAR
STARTCHAR asterisk
ENCODING 42
SWIDTH 481 0
DWIDTH 15 0
BBX 15 16 0 2
BITMAP
00180000
001C0400
001C0E00
001C2D00
101CB400
3E5ED054
0BFFAFF4
01BFF940
16BFD000
7FBFF800
10BA1F40
01F702D0
07D70000
0F430000
09034000
00024000
ENDCHAR
STARTCHAR plus
ENCODING 43
SWIDTH 466 0
DWIDTH 15 0
BBX 15 15 0 3
BITMAP
00180000
001C0000
001C0000
001C0000
001C0000
001C0054
001C6FF4
001FF940
16BE0000
7EBD0000
101D0000
001D0000
000D0000
000D0000
00040000
ENDCHAR
STARTCHAR comma
ENCODING 44
SWIDTH 112 0
DWIDTH 4 0
BBX 3 8 1 -4
BITMAP
60
F4
F4
B0
B0
A0
D0
40
ENDCHAR
STARTCHAR hyphen
ENCODING 45
SWIDTH 399 0
DWIDTH 13 0
BBX 12 5 0 6
BITMAP
000005
0001BF
002FF9
16FE40
7E5000
ENDCHAR
STARTCHAR period
ENCODING 46
SWIDTH 128 0
DWIDTH 4 0
BBX 2 2 1 0
BITMAP
B0
F0
ENDCHAR
STARTCHAR slash
ENCODING 47
SWIDTH 306 0
DWIDTH 10 0
BBX 9 26 0 -3
BITMAP
000140
000280
000340
000700
000A00
000D00
001C00
002C00
003800
007400
00B000
00E000
01D000
01C000
028000
034000
070000
0A0000
0D0000
1C0000
280000
380000
740000
B00000
A00000
500000
ENDCHAR
STARTCHAR zero
ENCODING 48
SWIDTH 308 0
DWIDTH 10 0
BBX 8 17 1 0
BITMAP
07E0
1D38
341C
700D
900A
9006
D006
D006
D006
A006
A00A
600A
700D
341C
2838
1EB4
07D0
ENDCHAR
STARTCHAR one
ENCODING 49
SWIDTH 112 0
DWIDTH 4 0
BBX 2 20 1 0
BITMAP
90
D0
D0
D0
D0
D0
D0
D0
D0
D0
D0
E0
E0
E0
E0
E0
A0
A0
A0
60
ENDCHAR
STARTCHAR two
ENCODING 50
SWIDTH 512 0
DWIDTH 16 0
BBX 16 19 0 0
BITMAP
00050000
007F8000
01FAD000
0B80E000
1E00A000
7800A000
1000E000
0000D000
0001D000
0002C000
00038000
00074000
000B0000
001E0000
002C006A
00781BF4
00BAF940
01FE4000
01900000
ENDCHAR
STARTCHAR three
ENCODING 51
SWIDTH 461 0
DWIDTH 15 0
BBX 14 22 0 0
BITMAP
001AE000
02FFF000
1F907000
7D00A000
6000D000
00028000
000B0000
002D0000
00BEA500
01FFAB80
07F401E0
0B800070
00000070
000000B0
000001E0
000003C0
00000B40
00007D00
0001F400
000BD000
001F4000
00180000
ENDCHAR
STARTCHAR four
ENCODING 52
SWIDTH 503 0
DWIDTH 16 0
BBX 16 25 0 0
BITMAP
00001900
00002D00
00007D00
0000FD00
0001FD00
0003ED00
00079D00
000F1D00
002D1D00
00781D00
00B01D00
01D01D00
03801EA9
0B41BFE9
2FAFAD00
BF941D00
50001D00
00001D00
00001D00
00001D00
00001D00
00001D00
00001D00
00001D00
00001C00
ENDCHAR
STARTCHAR five
ENCODING 53
SWIDTH 478 0
DWIDTH 15 0
BBX 15 22 0 0
BITMAP
040006B8
2E06BEA4
7FBE4000
7F900000
2E000000
2D000000
2C000000
2C000000
2C06F400
2C2FBC00
2CB41D00
2ED00D00
2F000D00
2C001D00
00002C00
00007400
0000F000
0002D000
000B8000
001F0000
002C0000
00200000
ENDCHAR
STARTCHAR six
ENCODING 54
SWIDTH 375 0
DWIDTH 12 0
BBX 12 26 0 0
BITMAP
01C000
02C000
02C000
038000
034000
074000
070000
0A0000
0E0000
0D0000
1D0000
1C0000
2C0000
280054
3802FD
340F8D
742D0C
747418
74A024
34D070
3680A0
3B41D0
2F4380
1F4B00
0BFD00
02F400
ENDCHAR
STARTCHAR seven
ENCODING 55
SWIDTH 458 0
DWIDTH 15 0
BBX 14 24 0 0
BITMAP
00001690
006BFFE0
2FFFABD0
6A500780
00000B40
00000F00
00001E00
00001D00
00002C00
00003800
00003400
00007400
00007000
0000A000
0000A000
0000A000
0000E000
0000E000
0000E000
0000E000
0000E000
0000F000
0000B400
00007400
ENDCHAR
STARTCHAR eight
ENCODING 56
SWIDTH 333 0
DWIDTH 11 0
BBX 10 23 0 0
BITMAP
000500
007F80
02EFC0
0B1FD0
1D1A90
380090
7400D0
7400C0
740180
340340
2C0700
0E0E00
07AC00
01F800
007C00
00AD00
01C300
024180
0300D0
070090
0700D0
079B80
02FE00
ENDCHAR
STARTCHAR nine
ENCODING 57
SWIDTH 475 0
DWIDTH 15 0
BBX 14 22 0 0
BITMAP
0001A400
001BFF40
007D0B80
01E01FC0
03802FC0
0B00B9C0
1D01F1D0
2C07D1D0
341F40D0
707D00D0
B6F800D0
7FD000D0
190000E0
000000E0
000000A0
000000A0
000000B0
000000B0
000000B0
000000B0
000000B0
00000060
ENDCHAR
STARTCHAR colon
ENCODING 58
SWIDTH 120 0
DWIDTH 4 0
BBX 3 11 0 3
BITMAP
20
74
10
00
00
00
00
00
14
28
10
ENDCHAR
STARTCHAR semicolon
ENCODING 59
SWIDTH 121 0
DWIDTH 4 0
BBX 3 14 1 -4
BITMAP
50
F0
00
00
00
00
60
F4
F4
B0
B0
A0
D0
40
ENDCHAR
STARTCHAR less
ENCODING 60
SWIDTH 409 0
DWIDTH 13 0
BBX 12 16 1 4
BITMAP
00000A
00003D
0001F8
0007E0
002F40
00BD00
03E000
1F4000
7C0000
7D0000
1F8000
07F400
00BE00
001BE4
0001FC
000024
ENDCHAR
STARTCHAR equal
ENCODING 61
SWIDTH 433 0
DWIDTH 14 0
BBX 13 8 1 3
BITMAP
056AF800
BFFE5000
6A500000
00000000
0001BF40
006FF900
6BE40000
F9000000
ENDCHAR
STARTCHAR greater
ENCODING 62
SWIDTH 450 0
DWIDTH 14 0
BBX 12 17 1 4
BITMAP
740000
7F4000
1BE000
01BE00
001FD0
0001F8
00002D
00001D
000038
0000B4
0007D0
001F40
00BD00
03F400
1F8000
3E0000
740000
ENDCHAR
STARTCHAR question
ENCODING 63
SWIDTH 445 0
DWIDTH 14 0
BBX 14 30 0 0
BITMAP
00001000
006BFF40
0BF957D0
7F9000E0
690000E0
000001D0
000002C0
00000740
00001E00
00007C00
0001F400
0007D000
001F4000
007D0000
00B40000
00F00000
00F40000
00BEB400
001A9000
00000000
00000000
00000000
00000000
00000000
00000000
00000000
00000000
00000000
001D0000
000D0000
ENDCHAR
STARTCHAR at
ENCODING 64
SWIDTH 945 0
DWIDTH 30 0
BBX 29 29 1 0
BITMAP
00000006A9000000
000000BFEFD00000
00000BE400B80000
00007E00001E0000
0001F40000074000
0007800000028000
001E00000001D000
0038002F8000E000
00F001FAC000E000
02C00B81C000A000
07402D0B4000A000
0B00741F0000A000
1D00E03F4000E000
2C02C0B74000D000
380741D24001C000
740E0382C0038000
B01D0E01E01E0000
F02C7C007FF80000
E02EE00005400000
E01A400000000000
F000000000000000
F000000000000B40
F400000000002F40
B80000000001B800
3D000000000BD000
1F40000001BE0000
07E400005BE00000
01BFAAABF9000000
0016FFE940000000
ENDCHAR
STARTCHAR A
ENCODING 65
SWIDTH 390 0
DWIDTH 13 0
BBX 15 24 1 0
BITMAP
0A000000
0F400000
0F800000
0FD00000
1EE00000
1DB00000
1D340000
2C280000
2C1C0000
2C0D0000
3C0E0000
380B0000
380746F0
7803FEB4
7807E000
786FC000
BFE6D000
BE00E000
B400B000
A0007000
E0003400
E0003800
D0002C00
40000C00
ENDCHAR
STARTCHAR B
ENCODING 66
SWIDTH 537 0
DWIDTH 17 0
BBX 17 23 0 0
BITMAP
0006FF4000
206F9B4000
7AE4074000
3F800B0000
2E001D0000
2D00780000
1D00E00000
1D0285A900
0D0BBEAF40
0E2FD00740
0BBD000700
0BF4000A00
07D0002C00
0780007400
074001E000
0340078000
03801F0000
02807C0000
02C1F40000
01C3D00000
01C7400000
00D0000000
0080000000
ENDCHAR
STARTCHAR C
ENCODING 67
SWIDTH 487 0
DWIDTH 16 0
BBX 15 24 0 0
BITMAP
00004000
000BF400
002E6D00
00780900
00F00000
01D00000
02C00000
03400000
07000000
0B000000
0E000000
1D000000
1C000000
2C000000
28000010
38000038
340000B4
740001F0
740002D0
38000B40
38002D00
2D00B400
0FABD000
02FD0000
ENDCHAR
STARTCHAR D
ENCODING 68
SWIDTH 554 0
DWIDTH 18 0
BBX 16 24 1 0
BITMAP
05000000
0A000000
0FFFA500
7FAAAFD0
FF0001B8
8F00001E
0B00000B
0B00000B
0B00000A
0B00000E
0B00001D
07000028
07400074
074000E0
074002D0
03400B40
03401E00
03407C00
0341F000
0347D000
025F4000
017D0000
00B40000
00D00000
ENDCHAR
STARTCHAR E
ENCODING 69
SWIDTH 474 0
DWIDTH 15 0
BBX 14 24 1 0
BITMAP
00000100
6001BD00
F41FD000
B6FD0000
7FD00000
7D000000
74000000
34000000
38000000
38002800
3801F000
381F8000
29B80000
2F900000
2E000000
2D000000
2D0001E0
2D000B80
2D007D00
2D02E000
2D1F4000
2EF80000
2F900000
19000000
ENDCHAR
STARTCHAR F
ENCODING 70
SWIDTH 428 0
DWIDTH 14 0
BBX 13 23 1 0
BITMAP
00000100
50006F40
E006F400
E06F4000
FBF40000
FE400000
F4000000
F0000000
F0000000
F0000000
F0000600
F0002E00
F402F400
F41F4000
B5B80000
BF900000
BD000000
B4000000
B4000000
74000000
74000000
34000000
24000000
ENDCHAR
STARTCHAR G
ENCODING 71
SWIDTH 591 0
DWIDTH 19 0
BBX 19 25 0 -4
BITMAP
00000A8000
00007F9000
0002E40000
000B400000
001D000000
0038000000
00B0000000
01D0000000
02C00016A4
074006FFE0
0B000AAB80
0D00000F40
1C00001F40
2800003F00
380000BF00
740002FF00
74000BCA00
78006E0E00
3E96F80F00
0FFFD00F00
01A9000F00
0000000F00
0000000B00
0000000B40
0000000100
ENDCHAR
STARTCHAR H
ENCODING 72
SWIDTH 424 0
DWIDTH 14 0
BBX 12 22 1 0
BITMAP
000040
E000E0
E000F0
E000B0
E00070
E00074
E00074
E00074
A00074
B000B8
B002F8
B01BA8
B5B92C
BFD02C
BE002C
B4001C
B0001D
70001D
70001D
70000D
74000E
700009
ENDCHAR
STARTCHAR I
ENCODING 73
SWIDTH 153 0
DWIDTH 5 0
BBX 3 24 1 0
BITMAP
64
74
34
38
38
38
38
38
28
2C
2C
2C
2C
2C
2C
2C
2C
2C
2C
2C
2C
2C
2C
18
ENDCHAR
STARTCHAR J
ENCODING 74
SWIDTH 371 0
DWIDTH 12 0
BBX 11 25 0 -2
BITMAP
000180
0001C0
0001C0
0001D0
0001D0
0001E0
0000E0
0000F0
0000B0
0000B0
0000B4
000074
000074
000078
000038
000038
000038
000028
400028
500028
700028
280028
1D0034
0791E0
00BF80
ENDCHAR
STARTCHAR K
ENCODING 75
SWIDTH 524 0
DWIDTH 17 0
BBX 16 22 1 0
BITMAP
50000000
E0000000
B0001D00
B0007800
7000F000
7402D000
74078000
340F0000
382D0000
38780000
38B00000
2DD00000
2F800000
2F400000
2F000000
1F400000
1FFFFAA9
1EAAAAA8
0E000000
0E000000
0B000000
06000000
ENDCHAR
STARTCHAR L
ENCODING 76
SWIDTH 537 0
DWIDTH 17 0
BBX 16 20 1 0
BITMAP
F0000000
F0000000
F4000000
F4000000
F4000000
B4000000
B4000000
B4000000
B4000000
B4000000
B4000000
B4000000
B8000000
B800002F
B80006F9
B8006F40
B807F400
79BF4000
7FF40000
7E400000
ENDCHAR
STARTCHAR M
ENCODING 77
SWIDTH 682 0
DWIDTH 22 0
BBX 20 25 1 0
BITMAP
5000000040
F8000002C0
FE000003D0
BF400007D0
B3C0000AD0
71D0000DD0
70F0001CE0
70740028A0
343C0034A0
341D0074A0
340F00B0B0
340740E070
3803C1D070
3801D2C070
3800F38074
3C007B4034
3C003E0034
3C001D0038
3D00000028
3D0000002C
3D0000002C
2D0000002D
2D0000001D
2E0000001E
1D00000019
ENDCHAR
STARTCHAR N
ENCODING 78
SWIDTH 541 0
DWIDTH 17 0
BBX 15 25 1 0
BITMAP
00000040
000001D0
000001E0
000000E0
800000F0
F40000B0
FC0000B0
FE0000B0
BF8000B0
BBD000B0
75F000B0
74780070
742E0070
340B4074
3803C074
3801E074
28007474
2C002DB4
2C000BB4
1D0003F4
1D0001F8
1E0000BC
0E00007C
0E000014
09000000
ENDCHAR
STARTCHAR O
ENCODING 79
SWIDTH 382 0
DWIDTH 12 0
BBX 12 22 0 0
BITMAP
000540
007FE0
00FAF8
02D03C
07801D
0B401E
0F000E
1E000E
2D000E
2C000E
38000E
38001E
74001D
74002D
74003C
B00078
7400B4
7400F0
3802D0
2E1B80
0FFE00
06E400
ENDCHAR
STARTCHAR P
ENCODING 80
SWIDTH 508 0
DWIDTH 16 0
BBX 15 26 1 0
BITMAP
0001A900
1D6FFFD0
2FE406F0
7E4000B4
FD000038
AD000074
2C0000F0
2C0002D0
2C000B80
2C007E00
2C02F400
2C2F8000
2EF90000
2F900000
2E000000
2D000000
2D000000
1D000000
1D000000
1D000000
1D000000
1D000000
0D000000
0D000000
0D000000
09000000
ENDCHAR
STARTCHAR Q
ENCODING 81
SWIDTH 512 0
DWIDTH 16 0
BBX 15 24 1 0
BITMAP
01F6F800
07FAAE00
0BD00740
1F400280
2E0001C0
3C0000D0
38000090
740000A0
B00000A0
B00000A0
E00000A0
E00000A0
D001D0A0
D000F0A0
E0007490
E00038D0
E0002EC0
B0000F80
70000B40
34000B80
2C001FD0
0E0079E0
07EBE0B4
01BE4020
ENDCHAR
STARTCHAR R
ENCODING 82
SWIDTH 503 0
DWIDTH 16 0
BBX 15 26 1 0
BITMAP
50000000
B401A400
B46FFF90
B6F956F0
BF4000F4
B80000E0
B4000380
B4001E00
B000B400
B00B8000
B07D0000
B7E00000
BF400000
B8000000
BD000000
BFD00000
A6FD0000
A06FD000
A006F900
A0006FD0
A00002F8
A0000024
A0000000
A0000000
A0000000
50000000
ENDCHAR
STARTCHAR S
ENCODING 83
SWIDTH 541 0
DWIDTH 17 0
BBX 17 24 0 0
BITMAP
0000014000
0000BFC000
000B9BC000
002D010000
01F0000000
0780000000
0F00000000
2D00000000
3800000000
7400000000
B000000000
B000000000
7800000000
1E40000000
06FA950000
0016BFF900
0000005F40
0000000740
0000001F00
000001F800
00006F9000
001BF90000
00FE400000
0050000000
ENDCHAR
STARTCHAR T
ENCODING 84
SWIDTH 595 0
DWIDTH 19 0
BBX 22 23 0 0
BITMAP
000009000560
00001FABFFD0
056BFFFA9400
7FFA5F000000
69400F000000
00000B000000
00000B000000
000007000000
000007400000
000007400000
000007400000
000003800000
000003800000
000003C00000
000002C00000
000002C00000
000002D00000
000002D00000
000001D00000
000001E00000
000000E00000
000000E00000
000000A00000
ENDCHAR
STARTCHAR U
ENCODING 85
SWIDTH 450 0
DWIDTH 14 0
BBX 13 24 1 -4
BITMAP
00000600
F0000B40
F0000B40
F0000F40
F0000F40
F0001F40
F0001F40
F0002F00
B0002F00
B0003F00
B0003F00
B0007F00
B000BB00
B000E700
B001D700
7002C740
74074340
3D1E0340
1FF80380
06900380
00000280
00000280
00000280
00000140
ENDCHAR
STARTCHAR V
ENCODING 86
SWIDTH 524 0
DWIDTH 17 0
BBX 16 23 0 0
BITMAP
0000000B
0000000E
0000000E
0000001D
6000002C
7800003C
3C000038
1E000074
0F0000B4
0B8000F0
03C000F0
02D001E0
00F002D0
00B402D0
007C03C0
002D0780
001E0B80
000B4B40
00078F00
0003DF00
0001FE00
0000BD00
00002D00
ENDCHAR
STARTCHAR W
ENCODING 87
SWIDTH 878 0
DWIDTH 28 0
BBX 27 25 0 -1
BITMAP
00000000000014
0000000000002C
00000000000038
00000000000074
1400001E0000B0
7C00002F0000B0
3D00002F4000E0
1E00003B8001D0
0F000077C002C0
0B4000B2D002C0
078000E1E00380
038001D0F00740
02C002C0B40B00
02D00380780B00
01E007403C0E00
00F00B001D1D00
00B40E000E1C00
00B81D000B6C00
007C2C0003B800
003D380002F400
002E780000F400
001FB400007000
000FF000000000
0007D000000000
00014000000000
ENDCHAR
STARTCHAR X
ENCODING 88
SWIDTH 461 0
DWIDTH 15 0
BBX 13 23 1 0
BITMAP
00000040
00000280
24000740
38000A00
2C001D00
1E003800
0B00B000
0780E000
03C2C000
01E78000
00FF0000
007D0000
007C0000
00BE0000
00FF0000
02D78000
0782C000
0F00E000
2D00B400
78003800
F0002D00
50001E00
00000A00
ENDCHAR
STARTCHAR Y
ENCODING 89
SWIDTH 483 0
DWIDTH 15 0
BBX 15 25 0 0
BITMAP
00000014
00000028
00000034
00000074
100000B0
B00000E0
380001D0
2E0002C0
0F400380
07D00740
01F00B00
00B80E00
002E1D00
000BFC00
0002F800
0000F400
0000F000
0001E000
0001D000
0002C000
00038000
00074000
000B0000
000E0000
000D0000
ENDCHAR
STARTCHAR Z
ENCODING 90
SWIDTH 670 0
DWIDTH 21 0
BBX 21 22 0 0
BITMAP
2AAAAAAA9000
1AAAAABFE000
00000007D000
0000001F4000
0000003E0000
000000B80000
000002F00000
000007D00000
00000F400000
00002E000000
0000B8000000
0001F0000000
0007D0000000
000F40000000
002E00000000
00B800000000
01F000000000
07D000000000
0F4000000000
2E5555556A40
7FFFFFFFFF80
3FAAAAAA5500
ENDCHAR
STARTCHAR bracketleft
ENCODING 91
SWIDTH 470 0
DWIDTH 15 0
BBX 14 39 0 -3
BITMAP
15556A40
7FFFE900
7C000000
38000000
38000000
38000000
38000000
28000000
2C000000
2C000000
2C000000
1C000000
1C000000
1D000000
0D000000
0D000000
0E000000
0E000000
0A000000
0A000000
0B000000
0B000000
07000000
07000000
07400000
07400000
03400000
03400000
03400000
02400000
02800000
02800000
02800000
02800000
02800000
02800060
02D56FE0
02FFE900
02F90000
ENDCHAR
STARTCHAR backslash
ENCODING 92
SWIDTH 554 0
DWIDTH 18 0
BBX 17 33 0 0
BITMAP
1000000000
7400000000
7C00000000
2D00000000
0F00000000
0740000000
02C0000000
01D0000000
00A0000000
0074000000
0028000000
001D000000
000E000000
0007400000
0003800000
0002D00000
0000E00000
0000B40000
0000780000
00002D0000
00001E0000
00000B4000
0000078000
000003C000
000001E000
000000F000
000000B800
0000003C00
0000002E00
0000001F00
0000000B80
00000007C0
00000002C0
ENDCHAR
STARTCHAR bracketright
ENCODING 93
SWIDTH 512 0
DWIDTH 16 0
BBX 16 41 0 -3
BITMAP
00155AA0
BFFFFFF4
BAA501F4
000000F0
000000F0
000000F0
000000F0
000000F0
000000F0
000000F0
000000F0
000000F0
000000B0
000000B0
000000B0
000000B0
000000B0
000000B0
000000B4
00000074
00000074
00000074
00000074
00000074
00000074
00000038
00000038
00000038
00000038
00000038
0000003C
0000003C
0000003C
0000003C
0000002D
0000002D
0000002D
0000002D
000001BE
00016FFD
0007FE90
ENDCHAR
STARTCHAR asciicircum
ENCODING 94
SWIDTH 390 0
DWIDTH 13 0
BBX 11 9 1 21
BITMAP
009000
02F400
03AC00
0B0A00
1D0380
2801E0
740078
A00028
800000
ENDCHAR
STARTCHAR underscore
ENCODING 95
SWIDTH 612 0
DWIDTH 20 0
BBX 19 6 0 0
BITMAP
0000000064
0000016FF8
00016FFFA0
016FFF9400
6FFE500000
7E50000000
ENDCHAR
STARTCHAR grave
ENCODING 96
SWIDTH 155 0
DWIDTH 5 0
BBX 4 5 0 19
BITMAP
10
74
3C
1E
06
ENDCHAR
STARTCHAR a
ENCODING 97
SWIDTH 366 0
DWIDTH 12 0
BBX 11 18 0 0
BITMAP
000140
001FE0
003FF0
00F8F0
02E0E0
03D1F0
0B81F0
0F02F0
1E07F0
2C0BB4
381E34
743C38
B0B838
E1F028
E3D02C
BF802C
7E001C
140004
ENDCHAR
STARTCHAR b
ENCODING 98
SWIDTH 442 0
DWIDTH 14 0
BBX 12 27 1 0
BITMAP
640000
780000
780000
780000
740000
740000
740000
740000
740000
B40000
B00150
B01FFC
B0BEBE
B2E41E
B7800B
BF000B
BD000B
B8000F
B0001E
A0003D
A000B8
A002F0
A01FC0
A0BE00
ABF400
BF8000
B90000
ENDCHAR
STARTCHAR c
ENCODING 99
SWIDTH 390 0
DWIDTH 13 0
BBX 11 19 1 0
BITMAP
02A000
0BF800
1E3800
3C2C00
781C00
740800
B00000
B00000
E00000
E00000
D00000
D00024
D00074
D000B4
E000F0
B001E0
7803C0
2EAF00
0BE400
ENDCHAR
STARTCHAR d
ENCODING 100
SWIDTH 316 0
DWIDTH 10 0
BBX 9 31 0 -3
BITMAP
000380
000380
000380
000380
000280
000280
000280
000280
000280
000180
000180
005680
02FF80
0BD780
1F0380
2D0280
3C0280
7802C0
7403C0
B003C0
A007C0
A00BC0
A00FC0
A02DC0
A039C0
B4A1C0
7F81C0
1A01C0
0001C0
0001C0
000080
ENDCHAR
STARTCHAR e
ENCODING 101
SWIDTH 461 0
DWIDTH 15 0
BBX 15 17 -1 0
BITMAP
0006E400
002FFE00
007D0B40
00F40F40
01E07E00
02D2F400
07EF8000
0BF80000
1FD00004
7F40003C
1B4000B8
074001F0
074007D0
03400F40
03807D00
02EAE000
00BE4000
ENDCHAR
STARTCHAR f
ENCODING 102
SWIDTH 345 0
DWIDTH 11 0
BBX 11 29 0 0
BITMAP
001400
00BF00
00FF80
01F2C0
01E0C0
02D040
02D000
03D000
03C000
03C000
03C000
03C000
038014
0382F8
03AFF0
07FE40
1F8000
7B8000
02C000
02C000
02C000
02C000
02D000
01D000
01D000
01E000
01E000
01E000
00D000
ENDCHAR
STARTCHAR g
ENCODING 103
SWIDTH 437 0
DWIDTH 14 0
BBX 13 32 0 -14
BITMAP
00006400
000BFE00
002E7E00
00B43F00
01D07F00
0380AF00
0741DF00
0E02CF40
1D038B40
2C0B4B40
380E0B40
742D0B80
70780B80
75F40B80
3FD00780
2F4007C0
040007C0
000007C0
000007C0
00000780
00000780
00000780
00000B40
00000B00
00000E00
00001D00
00003C00
0000B400
0001F000
001BD000
07FF4000
01A40000
ENDCHAR
STARTCHAR h
ENCODING 104
SWIDTH 466 0
DWIDTH 15 0
BBX 13 25 1 -1
BITMAP
50000000
E0000000
E0000000
E0000000
E0000000
E0000000
E0000000
E0000000
F0006900
F00BFF40
F02FD780
F07F03C0
F0BC03C0
F0F403C0
F2E003C0
F3D002C0
F78002C0
FB4002C0
FE0002C0
FD0002C0
FC0002C0
F40002C0
F00002C0
500002C0
00000040
ENDCHAR
STARTCHAR i
ENCODING 105
SWIDTH 132 0
DWIDTH 4 0
BBX 3 24 0 0
BITMAP
20
74
10
00
00
00
2C
3C
3C
3C
3C
3C
3C
3C
3C
3C
3C
2C
2C
2C
2C
2C
2C
2C
ENDCHAR
STARTCHAR j
ENCODING 106
SWIDTH 112 0
DWIDTH 4 0
BBX 10 37 -6 -11
BITMAP
000140
000340
000000
000000
000000
000000
000000
000000
000000
000100
000380
000380
000380
000380
000380
000380
000380
000380
000380
000380
0002C0
0002C0
0002C0
0002C0
0001D0
0001D0
0001D0
0001D0
0001D0
0001D0
0001D0
0002C0
6002C0
780380
1E0B40
06FE00
006800
ENDCHAR
STARTCHAR k
ENCODING 107
SWIDTH 428 0
DWIDTH 14 0
BBX 12 26 1 -1
BITMAP
100000
740000
780000
780000
780000
780000
78000A
B4001F
B4003D
B400B8
B401F4
B403E0
B00BC0
B01F40
B07E00
B0F800
F2E000
FF8000
FE0000
FD0000
FF8000
E6F900
E01FF9
E001BE
D00005
C00000
ENDCHAR
STARTCHAR l
ENCODING 108
SWIDTH 137 0
DWIDTH 4 0
BBX 4 27 0 0
BITMAP
74
34
34
38
28
28
28
2C
1C
1C
1C
1C
1C
1C
1D
1D
1D
1D
1D
1D
1D
1D
1D
1D
1D
1D
04
ENDCHAR
STARTCHAR m
ENCODING 109
SWIDTH 579 0
DWIDTH 19 0
BBX 17 19 1 0
BITMAP
E000000000
E000000000
B000004000
B01401F400
B0FD03F800
B1FE07FC00
B2FF0B7C00
72DF1E2D00
73876D1D00
77877C1D00
7743F81D00
7B02F41D00
7F02F01D00
7E01E00E00
7D01D00E00
3D00400F00
3C00000B40
3800000640
2400000000
ENDCHAR
STARTCHAR n
ENCODING 110
SWIDTH 483 0
DWIDTH 15 0
BBX 14 19 1 0
BITMAP
40006400
D002FD00
E00BFE00
E01F0B00
F03D0340
B0780380
B0B40380
B4F003C0
B4E002C0
B5D002C0
7AC002C0
7B8002D0
7F4002D0
7F4002D0
7F0001D0
3E0001D0
3E0001D0
3D0001D0
28000040
ENDCHAR
STARTCHAR o
ENCODING 111
SWIDTH 266 0
DWIDTH 9 0
BBX 8 18 0 0
BITMAP
0280
0BE0
0FB8
1D0D
280A
280A
340B
340B
740B
740B
740F
740E
741E
742D
7438
38B4
3FD0
1E40
ENDCHAR
STARTCHAR p
ENCODING 112
SWIDTH 482 0
DWIDTH 15 0
BBX 14 26 1 -9
BITMAP
90000000
E002BE40
E02F96D0
E1E400F0
EB4001E0
FD0002D0
F4000780
F0001E00
E0007C00
E002E000
E01F8000
B0BE0000
B7F40000
BF800000
BD000000
B0000000
B0000000
A0000000
A0000000
A0000000
A0000000
A0000000
E0000000
E0000000
D0000000
90000000
ENDCHAR
STARTCHAR q
ENCODING 113
SWIDTH 408 0
DWIDTH 13 0
BBX 14 24 0 -9
BITMAP
0006A000
002FB400
00B83800
01D03800
07807C00
0B007C00
1D00BD00
2C00ED00
3801DD00
7402CE00
74078E00
741F0B00
3EBD0B00
1A900700
00000740
00000740
00000380
00000380
000003C0
000002C0
000002C0
000001D0
000001D0
00000190
ENDCHAR
STARTCHAR r
ENCODING 114
SWIDTH 396 0
DWIDTH 13 0
BBX 11 17 1 0
BITMAP
000050
901FF8
E07EA4
E0F400
A1E000
B2D000
72C000
77C000
778000
378000
3B8000
2F8000
2F4000
1F4000
1F4000
0F4000
0A0000
ENDCHAR
STARTCHAR s
ENCODING 115
SWIDTH 366 0
DWIDTH 12 0
BBX 12 17 0 -1
BITMAP
002FE0
01FA90
078000
0F0000
2D0000
380000
340000
7406A4
3EBFFC
2FE46D
01002D
000078
0001F0
000BC0
007F00
01F800
019000
ENDCHAR
STARTCHAR t
ENCODING 116
SWIDTH 268 0
DWIDTH 9 0
BBX 10 26 -1 -1
BITMAP
010000
03C000
038000
038000
038000
038000
038000
0381A0
03FFE0
1BFE00
BFD000
FF8000
578000
078000
078000
038000
038000
038000
038000
03C000
03C000
02C000
02C000
02C000
02C000
018000
ENDCHAR
STARTCHAR u
ENCODING 117
SWIDTH 387 0
DWIDTH 12 0
BBX 11 17 1 -1
BITMAP
500040
E001D0
E001D0
E001D0
E001D0
F001D0
B002D0
B002D0
B002D0
B003D0
B00BD0
740FD0
742EE0
38BCE0
2EF4B0
0FC0B4
010020
ENDCHAR
STARTCHAR v
ENCODING 118
SWIDTH 354 0
DWIDTH 11 0
BBX 11 17 0 0
BITMAP
0000B4
0000B4
0000B4
6000B4
7800B4
3D00B4
1E00B4
0F40B4
0780B4
02D0B4
01F0F0
00B8F0
003DF0
001FF0
000BF0
0003F0
0001E0
ENDCHAR
STARTCHAR w
ENCODING 119
SWIDTH 566 0
DWIDTH 18 0
BBX 16 17 1 0
BITMAP
00050004
D00B400D
E00F800E
B40FD00E
781EB00E
3C1D780E
1D1D2D0E
0E2D0E0E
0B2D074E
07AD02CE
03FD01EE
02FC00BE
01FC003F
00FC001F
007C000B
00380000
00280000
ENDCHAR
STARTCHAR x
ENCODING 120
SWIDTH 454 0
DWIDTH 15 0
BBX 14 23 0 -3
BITMAP
00004000
0002D000
0002D000
0002D000
0002D000
7802C000
7D038000
2E038000
0B834000
02E74000
00BF0000
002F4000
001FD000
002FF400
002C7D00
003C1F40
007807D0
00B401F0
00B00060
00F00000
01E00000
01D00000
00400000
ENDCHAR
STARTCHAR y
ENCODING 121
SWIDTH 363 0
DWIDTH 12 0
BBX 11 29 0 -12
BITMAP
000014
00001C
20002C
78002C
3D002C
1F002C
0B802C
03C03C
01E03C
00B438
003C38
002E38
000FB8
0007F8
0002F8
0000F8
000074
000074
000074
000074
000074
0000B0
0000B0
0000B0
0000B0
0000A0
0000E0
0000E0
0000E0
ENDCHAR
STARTCHAR z
ENCODING 122
SWIDTH 618 0
DWIDTH 20 0
BBX 20 17 1 -1
BITMAP
00006E0000
001BFE0000
06FE6D0000
BF907C0000
6500B80000
0000F40000
0002E00000
0003C00000
000B400000
000E000000
001D000000
003C000014
0078005BFD
00B56BFFF9
00BFFFA500
00FE500000
0040000000
ENDCHAR
STARTCHAR braceleft
ENCODING 123
SWIDTH 348 0
DWIDTH 11 0
BBX 11 30 0 -3
BITMAP
006FE0
01F56C
03D004
074000
0B0000
0B0000
074000
028000
01D000
00B000
00B400
3FE000
3E0000
0A0000
038000
01D000
2AE000
7F8000
BD0000
B40000
B00000
B00000
B00000
700000
780000
2D0000
1F8000
0BF400
01FF40
001640
ENDCHAR
STARTCHAR bar
ENCODING 124
SWIDTH 137 0
DWIDTH 4 0
BBX 4 27 0 0
BITMAP
74
34
34
38
28
28
28
2C
1C
1C
1C
1C
1C
1C
1D
1D
1D
1D
1D
1D
1D
1D
1D
1D
1D
1D
04
ENDCHAR
STARTCHAR braceright
ENCODING 125
SWIDTH 348 0
DWIDTH 11 0
BBX 10 31 0 -4
BITMAP
064000
BBF400
D07D00
001E00
000B00
000B00
000A00
000E00
001C00
003800
00B000
00B940
001FD0
0003C0
000A00
001D00
003C00
003FD0
000BE0
0001E0
0000B0
000070
0000B0
0000A0
0000E0
0001D0
0007C0
001F40
01FE00
0FF400
054000
ENDCHAR
STARTCHAR asciitilde
ENCODING 126
SWIDTH 458 0
DWIDTH 15 0
BBX 13 6 1 17
BITMAP
0AA00100
3EB80F40
B43C2E00
B01EBC00
000BE000
00014000
ENDCHAR
STARTCHAR nonbreakingspace
ENCODING 160
SWIDTH 450 0
DWIDTH 14 0
BBX 1 1 0 0
BITMAP
00
ENDCHAR
STARTCHAR exclamdown
ENCODING 161
SWIDTH 137 0
DWIDTH 4 0
BBX 4 21 0 -5
BITMAP
06
05
00
00
00
00
00
00
24
38
74
34
34
34
34
34
34
34
34
34
20
ENDCHAR
STARTCHAR cent
ENCODING 162
SWIDTH 394 0
DWIDTH 13 0
BBX 11 25 1 -2
BITMAP
004000
01D000
00D000
00E000
01E000
0BFD00
1EBF40
3C6780
786180
746000
B07000
B07000
E03000
E03000
D03000
D03024
D03074
D030B4
E030F0
B031E0
7837C0
2EBF00
0BF800
007400
007400
ENDCHAR
STARTCHAR sterling
ENCODING 163
SWIDTH 539 0
DWIDTH 17 0
BBX 17 23 0 -1
BITMAP
0000004000
00001FF800
0000BD6D00
0002D00900
000B400000
001E000000
002C000000
0034000000
0079A80000
6FFFA00000
7EE4000000
00E0000000
01D0000000
01D0000000
02C0000000
02C0000000
02C0000000
02C0000000
02C06A9000
02C2FFFE00
02EF902F40
01F4000400
0040000000
ENDCHAR
STARTCHAR currency
ENCODING 164
SWIDTH 500 0
DWIDTH 16 0
BBX 13 19 1 2
BITMAP
00000740
00000B40
07401F00
079FAE00
03FFFC00
02F0B400
02C07400
03803800
03803800
03803800
02803800
02C07800
02C0F400
0BE2F000
1FBFF000
3D2E7800
B8002C00
B0001400
10000000
ENDCHAR
STARTCHAR yen
ENCODING 165
SWIDTH 478 0
DWIDTH 15 0
BBX 13 26 1 0
BITMAP
00000640
0E001F80
0B402F00
07C03D00
03D0BC00
02E0F400
01F5E000
00FFC000
007F8000
003F4000
001F0000
000E0000
000E0000
000E1500
05AFFF40
2FFFF900
055E0000
000E0000
16BFFE00
7FAE5400
000E0000
000E0000
000E0000
000E0000
000E0000
00090000
ENDCHAR
STARTCHAR brokenbar
ENCODING 166
SWIDTH 137 0
DWIDTH 4 0
BBX 4 27 0 0
BITMAP
74
34
34
38
28
28
28
2C
1C
1C
04
00
08
1D
0D
0D
0D
0D
0D
0D
0D
1D
1D
1D
1D
1D
04
ENDCHAR
STARTCHAR section
ENCODING 167
SWIDTH 366 0
DWIDTH 12 0
BBX 12 25 0 -1
BITMAP
001A90
01BFD0
079000
0F0000
2D0000
380000
740000
700190
796FF8
3FFABC
1B803C
0F0078
2D00F0
3803D0
380F40
747EA4
3FFFFC
2FE46D
01002D
000078
0001F0
000BC0
007F00
01F800
019000
ENDCHAR
STARTCHAR dieresis
ENCODING 168
SWIDTH 306 0
DWIDTH 10 0
BBX 7 2 2 22
BITMAP
B474
F0B4
ENDCHAR
STARTCHAR copyright
ENCODING 169
SWIDTH 485 0
DWIDTH 16 0
BBX 15 22 0 0
BITMAP
00015400
000BFF00
003E5BC0
00B801E0
02E000B0
03829078
0B5FF078
0E2CB43C
1D38203C
2C74003C
28B4003C
34B0007C
74B002F8
74B007F4
70741FF0
B02EFED0
740B97C0
74000F40
38007D00
2E06F400
0FFFD000
06F90000
ENDCHAR
STARTCHAR ordfeminine
ENCODING 170
SWIDTH 227 0
DWIDTH 7 0
BBX 7 9 0 4
BITMAP
0040
02F0
0A70
2870
30F0
A264
C624
EC14
6014
ENDCHAR
STARTCHAR guillemotleft
ENCODING 171
SWIDTH 652 0
DWIDTH 21 0
BBX 18 17 1 4
BITMAP
0000000050
00000A01E0
00003D07C0
0001F82F40
0007E0BD00
002F47E000
00BD1F4000
03E07D0000
1F42E00000
7C07800000
7D03E00000
1F81FD0000
07F42F8000
00BE07F800
001BE47F80
0001FC0BC0
0000240100
ENDCHAR
STARTCHAR logicalnot
ENCODING 172
SWIDTH 539 0
DWIDTH 17 0
BBX 14 9 2 4
BITMAP
0155AA90
BFFFFFE0
140000A0
000000A0
000000A0
000000B0
000000B0
000000B0
00000060
ENDCHAR
STARTCHAR uni00AD
ENCODING 173
SWIDTH 399 0
DWIDTH 13 0
BBX 12 5 0 6
BITMAP
000005
0001BF
002FF9
16FE40
7E5000
ENDCHAR
STARTCHAR registered
ENCODING 174
SWIDTH 382 0
DWIDTH 12 0
BBX 15 21 0 0
BITMAP
000BF800
003FFF40
00B51BC0
028001E0
034000B0
0B61A874
0E7E5B38
1D740B3C
2C706D2C
3872E02C
387F403C
747E003C
7467E078
74607DB4
B0600BF0
746002E0
740007C0
38001F40
2E40BD00
0FFFE400
06FE4000
ENDCHAR
STARTCHAR macron
ENCODING 175
SWIDTH 399 0
DWIDTH 13 0
BBX 12 3 0 21
BITMAP
0015AA
6FFFFF
695400
ENDCHAR
STARTCHAR degree
ENCODING 176
SWIDTH 201 0
DWIDTH 6 0
BBX 5 6 1 12
BITMAP
0400
7F40
D280
C180
E780
6900
ENDCHAR
STARTCHAR plusminus
ENCODING 177
SWIDTH 466 0
DWIDTH 15 0
BBX 12 16 0 2
BITMAP
001800
001C00
001C00
001C00
001C00
001C00
001C6A
001FF9
16BE00
7EBD00
102D00
001D00
000D00
000EAA
0ABFFF
1A9500
ENDCHAR
STARTCHAR twosuperior
ENCODING 178
SWIDTH 318 0
DWIDTH 10 0
BBX 9 11 0 5
BITMAP
004000
07E000
282000
602000
006000
005000
008000
018000
024180
07A900
0A4000
ENDCHAR
STARTCHAR threesuperior
ENCODING 179
SWIDTH 280 0
DWIDTH 9 0
BBX 9 13 0 5
BITMAP
005000
1AB000
602000
009000
018000
07A900
1E0240
040240
000200
000A00
002800
00E000
024000
ENDCHAR
STARTCHAR acute
ENCODING 180
SWIDTH 155 0
DWIDTH 5 0
BBX 5 4 0 19
BITMAP
0740
1F00
3D00
7400
ENDCHAR
STARTCHAR mu
ENCODING 181
SWIDTH 387 0
DWIDTH 12 0
BBX 10 21 1 -4
BITMAP
E001D0
E001D0
E001D0
E001E0
E001E0
F002E0
F002E0
F002E0
F003E0
F007E0
F00FE0
F41FE0
F47DE0
FDF4F0
FFD050
D50000
D00000
D00000
D00000
C00000
C00000
ENDCHAR
STARTCHAR paragraph
ENCODING 182
SWIDTH 447 0
DWIDTH 14 0
BBX 13 21 0 0
BITMAP
00015500
01BFFF40
0FFFFF40
2FFFE340
3FFFE340
7FFFE340
7FFEE340
3FE4E340
0500E380
0000E380
0000F380
0000F380
0000B380
0000B280
0000B280
0000B280
0000B6C0
000076C0
000075C0
000075C0
00002040
ENDCHAR
STARTCHAR periodcentered
ENCODING 183
SWIDTH 128 0
DWIDTH 4 0
BBX 3 2 0 7
BITMAP
7C
78
ENDCHAR
STARTCHAR cedilla
ENCODING 184
SWIDTH 322 0
DWIDTH 10 0
BBX 8 12 2 -10
BITMAP
4000
A000
E000
E000
F800
BF80
1BF4
00BC
007D
06FD
BFF4
6940
ENDCHAR
STARTCHAR onesuperior
ENCODING 185
SWIDTH 112 0
DWIDTH 4 0
BBX 2 11 1 5
BITMAP
C0
C0
D0
D0
D0
D0
D0
D0
D0
90
90
ENDCHAR
STARTCHAR ordmasculine
ENCODING 186
SWIDTH 212 0
DWIDTH 7 0
BBX 7 9 0 4
BITMAP
0A40
29A0
3430
7034
7034
7034
70B0
71D0
2E40
ENDCHAR
STARTCHAR guillemotright
ENCODING 187
SWIDTH 625 0
DWIDTH 20 0
BBX 18 18 1 4
BITMAP
0001000000
740B800000
7F47F80000
1BE07F4000
01BE0BE400
001FD0BE00
0001F80BC0
00002D01D0
00001D02C0
0000380740
0000B42E00
0007D0B800
001F47E000
00BD1F8000
03F4BD0000
1F82F40000
3E07800000
7409000000
ENDCHAR
STARTCHAR onequarter
ENCODING 188
SWIDTH 678 0
DWIDTH 22 0
BBX 20 26 1 -3
BITMAP
0001400000
0003800000
0007400000
0007000000
000A000000
800D000000
C01C000000
C028000900
D034002D00
D070007D00
D0B001FD00
D0E003CD00
D1D00B4D00
D2C02D0D00
D380740D00
D341D00E69
970786BE94
9A2FA50D00
0D10000D00
1C00000D00
2800000D00
3400000D00
7000000D00
B000000D00
E000000000
5000000000
ENDCHAR
STARTCHAR onehalf
ENCODING 189
SWIDTH 693 0
DWIDTH 22 0
BBX 18 26 1 -3
BITMAP
0000100000
0000740000
0000B00000
0000E00000
0001D00000
6002C00000
6003800000
6003400000
6007000000
600A014000
700D2FD000
701CB4A000
702E806000
703A00A000
707400A000
30B000D000
30E001C000
31D0028000
02C0074000
02800A0060
03401D5B90
07002FE400
0A00240000
0D00000000
1C00000000
0400000000
ENDCHAR
STARTCHAR threequarters
ENCODING 190
SWIDTH 868 0
DWIDTH 28 0
BBX 22 26 1 -3
BITMAP
000000004000
00040001C000
06FE0002C000
2E4A00038000
A00900075000
001C000B3400
0074000EB400
01D0001DF400
07FEE02EF400
0F80282B7400
05001C3E3400
00001C7D3400
000034B83400
0000A0F03400
0002C1E03AD0
001E03DAF940
00B80BE53400
00900B403400
00000B003400
00000E003400
00001D003400
00001C003400
000028003400
000034002000
000070000000
000010000000
ENDCHAR
STARTCHAR questiondown
ENCODING 191
SWIDTH 541 0
DWIDTH 17 0
BBX 15 27 2 -2
BITMAP
00038000
00028000
00000000
00000000
00000000
00000000
00000000
00000000
00000000
00000000
006A9000
00AAF400
0000B800
00007800
0000F400
0007E000
001F8000
007D0000
01F40000
07800000
0E000000
2C000000
38000000
740002F4
78006FE0
2FABF900
06A94000
ENDCHAR
STARTCHAR Agrave
ENCODING 192
SWIDTH 390 0
DWIDTH 13 0
BBX 15 30 1 -1
BITMAP
01000000
07800000
02D00000
01F00000
00700000
00000000
07400000
07800000
0BD00000
0BE00000
0BB00000
0E340000
0E280000
0E1C0000
1E0D0000
1D0A0000
1D070000
2D038000
2C03C6B8
2C02FFA8
3C03E400
3C1FE000
3FF9F000
3E40B000
78007400
74003800
70002C00
B0001C00
B0000D00
00000900
ENDCHAR
STARTCHAR Aacute
ENCODING 193
SWIDTH 390 0
DWIDTH 13 0
BBX 15 30 1 0
BITMAP
02800000
0B800000
2E000000
28000000
00000000
00000000
0A000000
0F400000
0F800000
0FD00000
1EE00000
1DB00000
1D340000
2C280000
2C1C0000
2C0D0000
3C0E0000
380B0000
380746F0
7803FEB4
7807E000
786FC000
BFE6D000
BE00E000
B400B000
A0007000
E0003400
E0003800
D0002C00
40000C00
ENDCHAR
STARTCHAR Acircumflex
ENCODING 194
SWIDTH 390 0
DWIDTH 13 0
BBX 17 33 -1 0
BITMAP
0090000000
01F4000000
03AD000000
074B000000
0E03C00000
2C00E00000
3400780000
B0001C0000
9000000000
00A0000000
00F4000000
00F8000000
00FD000000
01EE000000
01DB000000
01D3400000
02C2800000
02C1C00000
02C0D00000
03C0E00000
0380B00000
0380746F00
07803FEB40
07807E0000
0786FC0000
0BFE6D0000
0BE00E0000
0B400B0000
0A00070000
0E00034000
0E00038000
0D0002C000
040000C000
ENDCHAR
STARTCHAR Atilde
ENCODING 195
SWIDTH 390 0
DWIDTH 13 0
BBX 17 32 -1 0
BITMAP
06A4010000
2EBC0B8000
7C2D1F4000
740FBD0000
1007F40000
0000400000
0000000000
0000000000
00A0000000
00F4000000
00F8000000
00FD000000
01EE000000
01DB000000
01D3400000
02C2800000
02C1C00000
02C0D00000
03C0E00000
0380B00000
0380746F00
07803FEB40
07807E0000
0786FC0000
0BFE6D0000
0BE00E0000
0B400B0000
0A00070000
0E00034000
0E00038000
0D0002C000
040000C000
ENDCHAR
STARTCHAR Adieresis
ENCODING 196
SWIDTH 390 0
DWIDTH 13 0
BBX 15 28 1 0
BITMAP
28280000
783C0000
00000000
00000000
0A000000
0F400000
0F800000
0FD00000
1EE00000
1DB00000
1D340000
2C280000
2C1C0000
2C0D0000
3C0E0000
380B0000
380746F0
7803FEB4
7807E000
786FC000
BFE6D000
BE00E000
B400B000
A0007000
E0003400
E0003800
D0002C00
40000C00
ENDCHAR
STARTCHAR Aring
ENCODING 197
SWIDTH 390 0
DWIDTH 13 0
BBX 16 29 0 0
BITMAP
01400000
2FF80000
B96D0000
F01E0000
B42D0000
3FF80000
03D00000
03E00000
07F40000
07B80000
076C0000
074D0000
0B0A0000
0B070000
0B034000
0F038000
0E02C000
0E01D1BC
1E00FFAD
1E01F800
1E1BF000
2FF9B400
2F803800
2D002C00
28001C00
38000D00
38000E00
34000B00
10000300
ENDCHAR
STARTCHAR AE
ENCODING 198
SWIDTH 708 0
DWIDTH 23 0
BBX 22 24 1 0
BITMAP
0A0000001400
0F409006F800
0F81F06F8000
0FD0F7F80000
1EE0BF800000
1DB0B8000000
1D34B0000000
2C2870000000
2C1C70000000
2C0D74007400
3C0E74069000
380B746D0000
3807BAE00000
7803FE400000
7807FC000000
786FFC000000
BFE6FC0002D0
BE00FC001F40
B400BC00B800
A0007C07D000
E0003C6E0000
E0003FF40000
D0003F800000
400004000000
ENDCHAR
STARTCHAR Ccedilla
ENCODING 199
SWIDTH 487 0
DWIDTH 16 0
BBX 15 35 0 -11
BITMAP
00004000
000BF400
002E6D00
00780900
00F00000
01D00000
02C00000
03400000
07000000
0B000000
0E000000
1D000000
1C000000
2C000000
28000010
38000038
340000B4
740001F0
740002D0
38000B40
38002D00
2D00B400
0FABD000
02FD0000
00340000
00740000
00780000
003F4000
002FE400
0001FD00
00002F00
00002F00
0016FE00
003FE400
00040000
ENDCHAR
STARTCHAR Egrave
ENCODING 200
SWIDTH 474 0
DWIDTH 15 0
BBX 14 29 1 0
BITMAP
01000000
03800000
02E00000
00B40000
00340000
00000100
6001BD00
F41FD000
B6FD0000
7FD00000
7D000000
74000000
34000000
38000000
38002800
3801F000
381F8000
29B80000
2F900000
2E000000
2D000000
2D0001E0
2D000B80
2D007D00
2D02E000
2D1F4000
2EF80000
2F900000
19000000
ENDCHAR
STARTCHAR Eacute
ENCODING 201
SWIDTH 474 0
DWIDTH 15 0
BBX 14 28 1 0
BITMAP
00074000
001F0000
003D0000
00740000
00000100
6001BD00
F41FD000
B6FD0000
7FD00000
7D000000
74000000
34000000
38000000
38002800
3801F000
381F8000
29B80000
2F900000
2E000000
2D000000
2D0001E0
2D000B80
2D007D00
2D02E000
2D1F4000
2EF80000
2F900000
19000000
ENDCHAR
STARTCHAR Ecircumflex
ENCODING 202
SWIDTH 474 0
DWIDTH 15 0
BBX 14 34 1 0
BITMAP
00180000
003E0000
00B78000
00E1D000
02C0B400
07402D00
0A000F40
1D000740
18000000
00000000
00000100
6001BD00
F41FD000
B6FD0000
7FD00000
7D000000
74000000
34000000
38000000
38002800
3801F000
381F8000
29B80000
2F900000
2E000000
2D000000
2D0001E0
2D000B80
2D007D00
2D02E000
2D1F4000
2EF80000
2F900000
19000000
ENDCHAR
STARTCHAR Edieresis
ENCODING 203
SWIDTH 474 0
DWIDTH 15 0
BBX 14 29 1 0
BITMAP
0282C000
03C3C000
00000000
00000000
00000000
00000100
6001BD00
F41FD000
B6FD0000
7FD00000
7D000000
74000000
34000000
38000000
38002800
3801F000
381F8000
29B80000
2F900000
2E000000
2D000000
2D0001E0
2D000B80
2D007D00
2D02E000
2D1F4000
2EF80000
2F900000
19000000
ENDCHAR
STARTCHAR Igrave
ENCODING 204
SWIDTH 153 0
DWIDTH 5 0
BBX 4 30 0 0
BITMAP
10
74
3C
1E
06
00
19
1D
0D
0E
0E
0E
0E
0E
0A
0B
0B
0B
0B
0B
0B
0B
0B
0B
0B
0B
0B
0B
0B
06
ENDCHAR
STARTCHAR Iacute
ENCODING 205
SWIDTH 153 0
DWIDTH 5 0
BBX 4 30 1 0
BITMAP
0A
2E
B8
E0
00
00
64
74
34
38
38
38
38
38
28
2C
2C
2C
2C
2C
2C
2C
2C
2C
2C
2C
2C
2C
2C
18
ENDCHAR
STARTCHAR Icircumflex
ENCODING 206
SWIDTH 153 0
DWIDTH 5 0
BBX 12 33 -3 0
BITMAP
006000
00F800
01DE00
038780
0701D0
0E00B4
2C002D
34000E
600000
006400
007400
003400
003800
003800
003800
003800
003800
002800
002C00
002C00
002C00
002C00
002C00
002C00
002C00
002C00
002C00
002C00
002C00
002C00
002C00
002C00
001800
ENDCHAR
STARTCHAR Idieresis
ENCODING 207
SWIDTH 153 0
DWIDTH 5 0
BBX 7 28 -1 0
BITMAP
2828
787C
0000
0000
0640
0740
0340
0380
0380
0380
0380
0380
0280
02C0
02C0
02C0
02C0
02C0
02C0
02C0
02C0
02C0
02C0
02C0
02C0
02C0
02C0
0180
ENDCHAR
STARTCHAR Eth
ENCODING 208
SWIDTH 554 0
DWIDTH 18 0
BBX 17 24 0 0
BITMAP
0140000000
0280000000
03FFE94000
1FEAABF400
3FC0006E00
23C0000780
02C00002C0
02C00002C0
02C0000280
02C0000380
02C0000740
01C0000A00
01C0001D00
01D0003800
01D000B400
01E642D000
2BFFC78000
6BF91F0000
00D07C0000
00D1F40000
0097D00000
005F400000
002D000000
0034000000
ENDCHAR
STARTCHAR Ntilde
ENCODING 209
SWIDTH 541 0
DWIDTH 17 0
BBX 15 30 1 0
BITMAP
06A00100
3EB80F40
782D2F00
B01FBD00
1007F400
00004040
000001D0
000001E0
000000E0
800000F0
F40000B0
FC0000B0
FE0000B0
BF8000B0
BBD000B0
75F000B0
74780070
742E0070
340B4074
3803C074
3801E074
28007474
2C002DB4
2C000BB4
1D0003F4
1D0001F8
1E0000BC
0E00007C
0E000014
09000000
ENDCHAR
STARTCHAR Ograve
ENCODING 210
SWIDTH 382 0
DWIDTH 12 0
BBX 12 29 0 0
BITMAP
000100
000780
0003D0
0001F0
000070
000000
000000
000540
007FE0
00FAF8
02D03C
07801D
0B401E
0F000E
1E000E
2D000E
2C000E
38000E
38001E
74001D
74002D
74003C
B00078
7400B4
7400F0
3802D0
2E1B80
0FFE00
06E400
ENDCHAR
STARTCHAR Oacute
ENCODING 211
SWIDTH 382 0
DWIDTH 12 0
BBX 12 27 0 0
BITMAP
000A00
003D00
00B800
00E000
000000
000540
007FE0
00FAF8
02D03C
07801D
0B401E
0F000E
1E000E
2D000E
2C000E
38000E
38001E
74001D
74002D
74003C
B00078
7400B4
7400F0
3802D0
2E1B80
0FFE00
06E400
ENDCHAR
STARTCHAR Ocircumflex
ENCODING 212
SWIDTH 382 0
DWIDTH 12 0
BBX 12 30 0 0
BITMAP
006000
00BC00
01DE00
038780
0701D0
0E00B4
2C002D
34000E
600540
007FE0
00FAF8
02D03C
07801D
0B401E
0F000E
1E000E
2D000E
2C000E
38000E
38001E
74001D
74002D
74003C
B00078
7400B4
7400F0
3802D0
2E1B80
0FFE00
06E400
ENDCHAR
STARTCHAR Otilde
ENCODING 213
SWIDTH 382 0
DWIDTH 12 0
BBX 14 28 0 0
BITMAP
01A90040
0BAF02E0
1E0B47D0
1D03EF40
0401FD00
00001000
00054000
007FE000
00FAF800
02D03C00
07801D00
0B401E00
0F000E00
1E000E00
2D000E00
2C000E00
38000E00
38001E00
74001D00
74002D00
74003C00
B0007800
7400B400
7400F000
3802D000
2E1B8000
0FFE0000
06E40000
ENDCHAR
STARTCHAR Odieresis
ENCODING 214
SWIDTH 382 0
DWIDTH 12 0
BBX 12 26 0 0
BITMAP
002828
00783C
000000
000000
000540
007FE0
00FAF8
02D03C
07801D
0B401E
0F000E
1E000E
2D000E
2C000E
38000E
38001E
74001D
74002D
74003C
B00078
7400B4
7400F0
3802D0
2E1B80
0FFE00
06E400
ENDCHAR
STARTCHAR multiply
ENCODING 215
SWIDTH 454 0
DWIDTH 15 0
BBX 9 11 2 4
BITMAP
700040
3802C0
1D0B40
0B5E00
03F800
02F000
07F400
1E2C00
380E00
B00B00
000640
ENDCHAR
STARTCHAR Oslash
ENCODING 216
SWIDTH 382 0
DWIDTH 12 0
BBX 12 26 0 -3
BITMAP
000010
000674
007FF0
00FAF8
02D1FC
0781DD
0B429E
0F034E
1E070E
2D0A0E
2C0D0E
381C0E
382C1E
74381D
74742D
74B03C
B0E078
74D0B4
75C0F0
3A82D0
2F5B80
0FFE00
0BE400
0D0000
1C0000
040000
ENDCHAR
STARTCHAR Ugrave
ENCODING 217
SWIDTH 450 0
DWIDTH 14 0
BBX 13 30 1 -4
BITMAP
00800000
00E00000
00B40000
003C0000
001C0000
00000000
00000600
F0000B40
F0000B40
F0000F40
F0000F40
F0001F40
F0001F40
F0002F00
B0002F00
B0003F00
B0003F00
B0007F00
B000BB00
B000E700
B001D700
7002C740
74074340
3D1E0340
1FF80380
06900380
00000280
00000280
00000280
00000140
ENDCHAR
STARTCHAR Uacute
ENCODING 218
SWIDTH 450 0
DWIDTH 14 0
BBX 13 27 1 -4
BITMAP
00028000
000B4000
002E0000
00380600
F0000B40
F0000B40
F0000F40
F0000F40
F0001F40
F0001F40
F0002F00
B0002F00
B0003F00
B0003F00
B0007F00
B000BB00
B000E700
B001D700
7002C740
74074340
3D1E0340
1FF80380
06900380
00000280
00000280
00000280
00000140
ENDCHAR
STARTCHAR Ucircumflex
ENCODING 219
SWIDTH 450 0
DWIDTH 14 0
BBX 13 34 1 -4
BITMAP
00600000
00BC0000
01DE0000
03878000
0701D000
0E00B400
2C002D00
34000E00
60000000
00000000
00000600
F0000B40
F0000B40
F0000F40
F0000F40
F0001F40
F0001F40
F0002F00
B0002F00
B0003F00
B0003F00
B0007F00
B000BB00
B000E700
B001D700
7002C740
74074340
3D1E0340
1FF80380
06900380
00000280
00000280
00000280
00000140
ENDCHAR
STARTCHAR Udieresis
ENCODING 220
SWIDTH 450 0
DWIDTH 14 0
BBX 13 28 1 -4
BITMAP
02D1D000
03D2D000
00000000
00000000
00000600
F0000B40
F0000B40
F0000F40
F0000F40
F0001F40
F0001F40
F0002F00
B0002F00
B0003F00
B0003F00
B0007F00
B000BB00
B000E700
B001D700
7002C740
74074340
3D1E0340
1FF80380
06900380
00000280
00000280
00000280
00000140
ENDCHAR
STARTCHAR Yacute
ENCODING 221
SWIDTH 483 0
DWIDTH 15 0
BBX 15 30 0 0
BITMAP
00002800
0000B400
0002E000
00038000
00000000
00000014
00000028
00000034
00000074
100000B0
B00000E0
380001D0
2E0002C0
0F400380
07D00740
01F00B00
00B80E00
002E1D00
000BFC00
0002F800
0000F400
0000F000
0001E000
0001D000
0002C000
00038000
00074000
000B0000
000E0000
000D0000
ENDCHAR
STARTCHAR Thorn
ENCODING 222
SWIDTH 398 0
DWIDTH 13 0
BBX 11 26 1 0
BITMAP
640000
740000
740000
B00000
B00000
B01A90
B1FFF4
B7E4B8
BF402C
BD002C
F8002C
F4002C
F00038
F000B4
F001E0
F00780
E06E00
E6F400
FF8000
F80000
F00000
F00000
F00000
F00000
F00000
500000
ENDCHAR
STARTCHAR germandbls
ENCODING 223
SWIDTH 537 0
DWIDTH 17 0
BBX 17 23 0 0
BITMAP
0006FF4000
206F9B4000
7AE4074000
3F800B0000
2E001D0000
2D00780000
1D00E00000
1D0285A900
0D0BBEAF40
0E2FD00740
0BBD000700
0BF4000A00
07D0002C00
0780007400
074001E000
0340078000
03801F0000
02807C0000
02C1F40000
01C3D00000
01C7400000
00D0000000
0080000000
ENDCHAR
STARTCHAR agrave
ENCODING 224
SWIDTH 366 0
DWIDTH 12 0
BBX 11 24 0 0
BITMAP
004000
01D000
00F400
007800
001800
000000
000140
001FE0
003FF0
00F8F0
02E0E0
03D1F0
0B81F0
0F02F0
1E07F0
2C0BB4
381E34
743C38
B0B838
E1F028
E3D02C
BF802C
7E001C
140004
ENDCHAR
STARTCHAR aacute
ENCODING 225
SWIDTH 366 0
DWIDTH 12 0
BBX 11 23 0 0
BITMAP
000740
001F40
003D00
007400
000000
000140
001FE0
003FF0
00F8F0
02E0E0
03D1F0
0B81F0
0F02F0
1E07F0
2C0BB4
381E34
743C38
B0B838
E1F028
E3D02C
BF802C
7E001C
140004
ENDCHAR
STARTCHAR acircumflex
ENCODING 226
SWIDTH 366 0
DWIDTH 12 0
BBX 12 30 0 0
BITMAP
006000
00F800
02DE00
034740
0B02D0
1D00B0
28003D
74001D
600000
000000
000000
000000
000140
001FE0
003FF0
00F8F0
02E0E0
03D1F0
0B81F0
0F02F0
1E07F0
2C0BB4
381E34
743C38
B0B838
E1F028
E3D02C
BF802C
7E001C
140004
ENDCHAR
STARTCHAR atilde
ENCODING 227
SWIDTH 366 0
DWIDTH 12 0
BBX 13 24 0 0
BITMAP
06A40140
1FBD0780
3C1E0F40
380BBE00
1003F800
00004000
00014000
001FE000
003FF000
00F8F000
02E0E000
03D1F000
0B81F000
0F02F000
1E07F000
2C0BB400
381E3400
743C3800
B0B83800
E1F02800
E3D02C00
BF802C00
7E001C00
14000400
ENDCHAR
STARTCHAR adieresis
ENCODING 228
SWIDTH 366 0
DWIDTH 12 0
BBX 11 24 0 0
BITMAP
028280
0783C0
000000
000000
000000
000000
000140
001FE0
003FF0
00F8F0
02E0E0
03D1F0
0B81F0
0F02F0
1E07F0
2C0BB4
381E34
743C38
B0B838
E1F028
E3D02C
BF802C
7E001C
140004
ENDCHAR
STARTCHAR aring
ENCODING 229
SWIDTH 366 0
DWIDTH 12 0
BBX 11 22 0 0
BITMAP
006A40
02FBE0
0780B0
0380B0
03E6E0
00BFE0
007FF0
00F8F0
02E0E0
03D1F0
0B81F0
0F02F0
1E07F0
2C0BB4
381E34
743C38
B0B838
E1F028
E3D02C
BF802C
7E001C
140004
ENDCHAR
STARTCHAR ae
ENCODING 230
SWIDTH 705 0
DWIDTH 23 0
BBX 22 18 0 0
BITMAP
0001401B9000
001FE0BFF800
003FF1F43D00
00F8F3D03D00
02E0E781F800
03D1FB4BD000
0B81FFBE0000
0F02FFE00000
1E07FF400010
2C0BFD0000F0
381E7D0002E0
743C3D0007C0
B0B83D001F40
E1F02D003D00
E3D02D01F000
BF802FAB8000
7E001EF90000
140004000000
ENDCHAR
STARTCHAR ccedilla
ENCODING 231
SWIDTH 390 0
DWIDTH 13 0
BBX 11 29 1 -10
BITMAP
02A000
0BF800
1E3800
3C2C00
781C00
740800
B00000
B00000
E00000
E00000
D00000
D00024
D00074
D000B4
E000F0
B001E0
7803C0
2EAF00
0BE400
0B0000
0B0000
0B9000
07F800
01BF40
000BD0
0003E0
001BE0
07FF80
06A400
ENDCHAR
STARTCHAR egrave
ENCODING 232
SWIDTH 461 0
DWIDTH 15 0
BBX 15 24 -1 0
BITMAP
00040000
000F0000
00078000
0002D000
00009000
00000000
00000000
0006E400
002FFE00
007D0B40
00F40F40
01E07E00
02D2F400
07EF8000
0BF80000
1FD00004
7F40003C
1B4000B8
074001F0
074007D0
03400F40
03807D00
02EAE000
00BE4000
ENDCHAR
STARTCHAR eacute
ENCODING 233
SWIDTH 461 0
DWIDTH 15 0
BBX 15 23 -1 0
BITMAP
00002C00
0000B800
0002F000
00028000
00000000
00000000
0006E400
002FFE00
007D0B40
00F40F40
01E07E00
02D2F400
07EF8000
0BF80000
1FD00004
7F40003C
1B4000B8
074001F0
074007D0
03400F40
03807D00
02EAE000
00BE4000
ENDCHAR
STARTCHAR ecircumflex
ENCODING 234
SWIDTH 461 0
DWIDTH 15 0
BBX 15 30 -1 0
BITMAP
00024000
000BD000
000EB000
002C3800
00740E00
00A00780
01D002E0
028000A0
02000000
00000000
00000000
00000000
00000000
0006E400
002FFE00
007D0B40
00F40F40
01E07E00
02D2F400
07EF8000
0BF80000
1FD00004
7F40003C
1B4000B8
074001F0
074007D0
03400F40
03807D00
02EAE000
00BE4000
ENDCHAR
STARTCHAR edieresis
ENCODING 235
SWIDTH 461 0
DWIDTH 15 0
BBX 15 24 -1 0
BITMAP
001D1A00
002D2D00
00000000
00000000
00000000
00000000
00000000
0006E400
002FFE00
007D0B40
00F40F40
01E07E00
02D2F400
07EF8000
0BF80000
1FD00004
7F40003C
1B4000B8
074001F0
074007D0
03400F40
03807D00
02EAE000
00BE4000
ENDCHAR
STARTCHAR igrave
ENCODING 236
SWIDTH 132 0
DWIDTH 4 0
BBX 3 26 0 0
BITMAP
C0
F0
B8
2C
08
00
00
00
2C
3C
3C
3C
3C
3C
3C
3C
3C
3C
3C
2C
2C
2C
2C
2C
2C
2C
ENDCHAR
STARTCHAR iacute
ENCODING 237
SWIDTH 132 0
DWIDTH 4 0
BBX 4 27 1 0
BITMAP
09
2E
B8
E0
40
00
00
00
00
B0
F0
F0
F0
F0
F0
F0
F0
F0
F0
F0
B0
B0
B0
B0
B0
B0
B0
ENDCHAR
STARTCHAR icircumflex
ENCODING 238
SWIDTH 132 0
DWIDTH 4 0
BBX 12 30 -4 0
BITMAP
006000
00F800
01DE00
038780
0701D0
0E00B4
2C002D
34000E
600000
000000
000000
000000
002C00
003C00
003C00
003C00
003C00
003C00
003C00
003C00
003C00
003C00
003C00
002C00
002C00
002C00
002C00
002C00
002C00
002C00
ENDCHAR
STARTCHAR idieresis
ENCODING 239
SWIDTH 132 0
DWIDTH 4 0
BBX 7 24 -1 0
BITMAP
B474
F0B4
0000
0000
0000
0000
0B00
0F00
0F00
0F00
0F00
0F00
0F00
0F00
0F00
0F00
0F00
0B00
0B00
0B00
0B00
0B00
0B00
0B00
ENDCHAR
STARTCHAR eth
ENCODING 240
SWIDTH 481 0
DWIDTH 15 0
BBX 13 20 2 0
BITMAP
00900000
00F00000
00B40000
003C0000
001D0000
000F5A80
06FFFE40
0BABC000
0002D000
0000E000
1A80B000
3FF4B000
B9BD7000
B01F7000
E007F000
A003E000
B003D000
380B8000
1EBE0000
07F40000
ENDCHAR
STARTCHAR ntilde
ENCODING 241
SWIDTH 483 0
DWIDTH 15 0
BBX 14 27 1 0
BITMAP
02A80040
0FAE03D0
2D0F0BC0
2C07AF40
0002F800
00001000
00000000
00000000
40006400
D002FD00
E00BFE00
E01F0B00
F03D0340
B0780380
B0B40380
B4F003C0
B4E002C0
B5D002C0
7AC002C0
7B8002D0
7F4002D0
7F4002D0
7F0001D0
3E0001D0
3E0001D0
3D0001D0
28000040
ENDCHAR
STARTCHAR ograve
ENCODING 242
SWIDTH 266 0
DWIDTH 9 0
BBX 8 24 0 0
BITMAP
0400
0E00
0B80
03C0
00D0
0000
0280
0BE0
0FB8
1D0D
280A
280A
340B
340B
740B
740B
740F
740E
741E
742D
7438
38B4
3FD0
1E40
ENDCHAR
STARTCHAR oacute
ENCODING 243
SWIDTH 266 0
DWIDTH 9 0
BBX 8 23 0 0
BITMAP
0028
00B8
02E0
0380
0000
0280
0BE0
0FB8
1D0D
280A
280A
340B
340B
740B
740B
740F
740E
741E
742D
7438
38B4
3FD0
1E40
ENDCHAR
STARTCHAR ocircumflex
ENCODING 244
SWIDTH 266 0
DWIDTH 9 0
BBX 11 30 -1 0
BITMAP
009000
02F000
07AC00
0B0E00
1D0780
2801D0
7400B8
E00028
800000
000000
000000
000000
00A000
02F800
03EE00
074340
0A0280
0A0280
0D02C0
0D02C0
1D02C0
1D02C0
1D03C0
1D0380
1D0780
1D0B40
1D0E00
0E2D00
0FF400
079000
ENDCHAR
STARTCHAR otilde
ENCODING 245
SWIDTH 266 0
DWIDTH 9 0
BBX 12 25 -1 0
BITMAP
0AA001
7EF80F
B43C2E
E02EBC
400BE0
000140
000000
00A000
02F800
03EE00
074340
0A0280
0A0280
0D02C0
0D02C0
1D02C0
1D02C0
1D03C0
1D0380
1D0780
1D0B40
1D0E00
0E2D00
0FF400
079000
ENDCHAR
STARTCHAR odieresis
ENCODING 246
SWIDTH 266 0
DWIDTH 9 0
BBX 8 24 0 0
BITMAP
1D19
2D2D
0000
0000
0000
0000
0280
0BE0
0FB8
1D0D
280A
280A
340B
340B
740B
740B
740F
740E
741E
742D
7438
38B4
3FD0
1E40
ENDCHAR
STARTCHAR divide
ENCODING 247
SWIDTH 345 0
DWIDTH 11 0
BBX 10 11 1 3
BITMAP
014000
02C000
004000
001540
ABFFD0
AA5540
000000
000000
008000
01D000
004000
ENDCHAR
STARTCHAR oslash
ENCODING 248
SWIDTH 266 0
DWIDTH 9 0
BBX 9 22 0 -3
BITMAP
000240
028740
0BEB00
0FBE00
1D1D00
282E00
283E00
347B00
34AB00
74DB00
75CB00
768F00
7B4E00
7F1E00
7E2D00
7C3800
38B400
3FD000
7E4000
A00000
D00000
400000
ENDCHAR
STARTCHAR ugrave
ENCODING 249
SWIDTH 387 0
DWIDTH 12 0
BBX 11 25 1 -1
BITMAP
010000
038000
02E000
00F000
003400
000000
000000
000000
500040
E001D0
E001D0
E001D0
E001D0
F001D0
B002D0
B002D0
B002D0
B003D0
B00BD0
740FD0
742EE0
38BCE0
2EF4B0
0FC0B4
010020
ENDCHAR
STARTCHAR uacute
ENCODING 250
SWIDTH 387 0
DWIDTH 12 0
BBX 11 24 1 -1
BITMAP
000A00
002D00
00B800
00E000
000000
000000
000000
500040
E001D0
E001D0
E001D0
E001D0
F001D0
B002D0
B002D0
B002D0
B003D0
B00BD0
740FD0
742EE0
38BCE0
2EF4B0
0FC0B4
010020
ENDCHAR
STARTCHAR ucircumflex
ENCODING 251
SWIDTH 387 0
DWIDTH 12 0
BBX 11 31 1 -1
BITMAP
019000
02F000
07A800
0A0E00
1D0780
3801D0
7000B8
E00028
800000
000000
000000
000000
000000
000000
500040
E001D0
E001D0
E001D0
E001D0
F001D0
B002D0
B002D0
B002D0
B003D0
B00BD0
740FD0
742EE0
38BCE0
2EF4B0
0FC0B4
010020
ENDCHAR
STARTCHAR udieresis
ENCODING 252
SWIDTH 387 0
DWIDTH 12 0
BBX 11 25 1 -1
BITMAP
0B4740
0F4B40
000000
000000
000000
000000
000000
000000
500040
E001D0
E001D0
E001D0
E001D0
F001D0
B002D0
B002D0
B002D0
B003D0
B00BD0
740FD0
742EE0
38BCE0
2EF4B0
0FC0B4
010020
ENDCHAR
STARTCHAR yacute
ENCODING 253
SWIDTH 363 0
DWIDTH 12 0
BBX 11 35 0 -12
BITMAP
000740
001F00
003D00
007400
000000
000000
000014
00001C
20002C
78002C
3D002C
1F002C
0B802C
03C03C
01E03C
00B438
003C38
002E38
000FB8
0007F8
0002F8
0000F8
000074
000074
000074
000074
000074
0000B0
0000B0
0000B0
0000B0
0000A0
0000E0
0000E0
0000E0
ENDCHAR
STARTCHAR thorn
ENCODING 254
SWIDTH 439 0
DWIDTH 14 0
BBX 13 22 1 -1
BITMAP
90000000
E0015000
E02FFE00
E2E40740
EB400740
FD000B00
F4001E00
B0002800
A000B000
A002D000
B01F4000
B0BC0000
B7E00000
7F800000
7D000000
B0000000
B0000000
B0000000
B0000000
A0000000
A0000000
90000000
ENDCHAR
STARTCHAR ydieresis
ENCODING 255
SWIDTH 363 0
DWIDTH 12 0
BBX 11 36 0 -12
BITMAP
028280
0783C0
000000
000000
000000
000000
000000
000014
00001C
20002C
78002C
3D002C
1F002C
0B802C
03C03C
01E03C
00B438
003C38
002E38
000FB8
0007F8
0002F8
0000F8
000074
000074
000074
000074
000074
0000B0
0000B0
0000B0
0000B0
0000A0
0000E0
0000E0
0000E0
ENDCHAR
STARTCHAR Amacron
ENCODING 256
SWIDTH 390 0
DWIDTH 13 0
BBX 16 28 0 0
BITMAP
0016A900
AFFFFD00
69540000
00000000
02800000
03D00000
03E00000
03F40000
07B80000
076C0000
074D0000
0B0A0000
0B070000
0B034000
0F038000
0E02C000
0E01D1BC
1E00FFAD
1E01F800
1E1BF000
2FF9B400
2F803800
2D002C00
28001C00
38000D00
38000E00
34000B00
10000300
ENDCHAR
STARTCHAR amacron
ENCODING 257
SWIDTH 366 0
DWIDTH 12 0
BBX 12 24 0 0
BITMAP
0015A9
6FFFFE
695400
000000
000000
000000
000140
001FE0
003FF0
00F8F0
02E0E0
03D1F0
0B81F0
0F02F0
1E07F0
2C0BB4
381E34
743C38
B0B838
E1F028
E3D02C
BF802C
7E001C
140004
ENDCHAR
STARTCHAR Abreve
ENCODING 258
SWIDTH 390 0
DWIDTH 13 0
BBX 15 31 1 0
BITMAP
10014000
74074000
2D1F0000
0BFD0000
02E00000
00000000
00000000
0A000000
0F400000
0F800000
0FD00000
1EE00000
1DB00000
1D340000
2C280000
2C1C0000
2C0D0000
3C0E0000
380B0000
380746F0
7803FEB4
7807E000
786FC000
BFE6D000
BE00E000
B400B000
A0007000
E0003400
E0003800
D0002C00
40000C00
ENDCHAR
STARTCHAR abreve
ENCODING 259
SWIDTH 366 0
DWIDTH 12 0
BBX 11 24 0 0
BITMAP
000020
0B00B0
03D6E0
01FF80
006900
000000
000140
001FE0
003FF0
00F8F0
02E0E0
03D1F0
0B81F0
0F02F0
1E07F0
2C0BB4
381E34
743C38
B0B838
E1F028
E3D02C
BF802C
7E001C
140004
ENDCHAR
STARTCHAR Aogonek
ENCODING 260
SWIDTH 390 0
DWIDTH 13 0
BBX 15 32 1 -8
BITMAP
0A000000
0F400000
0F800000
0FD00000
1EE00000
1DB00000
1D340000
2C280000
2C1C0000
2C0D0000
3C0E0000
380B0000
380746F0
7803FEB4
7807E000
786FC000
BFE6D000
BE00E000
B400B000
A0007000
E0003400
E0003800
D0002C00
40001C00
0000B800
0001E000
0002C000
00038000
00038000
0003C1B4
0001FFF0
00006A40
ENDCHAR
STARTCHAR aogonek
ENCODING 261
SWIDTH 366 0
DWIDTH 12 0
BBX 15 25 0 -7
BITMAP
00014000
001FE000
003FF000
00F8F000
02E0E000
03D1F000
0B81F000
0F02F000
1E07F000
2C0BB400
381E3400
743C3800
B0B83800
E1F02800
E3D02C00
BF802C00
7E002C00
1400F800
0002D000
00038000
00038000
00034000
0003D6F4
0001FFE0
00006940
ENDCHAR
STARTCHAR Cacute
ENCODING 262
SWIDTH 487 0
DWIDTH 16 0
BBX 15 28 0 0
BITMAP
0000A000
0002E000
000B8000
000E0000
00004000
000BF400
002E6D00
00780900
00F00000
01D00000
02C00000
03400000
07000000
0B000000
0E000000
1D000000
1C000000
2C000000
28000010
38000038
340000B4
740001F0
740002D0
38000B40
38002D00
2D00B400
0FABD000
02FD0000
ENDCHAR
STARTCHAR cacute
ENCODING 263
SWIDTH 390 0
DWIDTH 13 0
BBX 11 26 1 0
BITMAP
002C00
00B800
01F000
028000
000000
000000
000000
02A000
0BF800
1E3800
3C2C00
781C00
740800
B00000
B00000
E00000
E00000
D00000
D00024
D00074
D000B4
E000F0
B001E0
7803C0
2EAF00
0BE400
ENDCHAR
STARTCHAR Ccircumflex
ENCODING 264
SWIDTH 487 0
DWIDTH 16 0
BBX 15 32 0 0
BITMAP
000A0000
001F4000
003AD000
0074B400
00E02C00
01C00E00
038007C0
0B0001C0
09004000
000BF400
002E6D00
00780900
00F00000
01D00000
02C00000
03400000
07000000
0B000000
0E000000
1D000000
1C000000
2C000000
28000010
38000038
340000B4
740001F0
740002D0
38000B40
38002D00
2D00B400
0FABD000
02FD0000
ENDCHAR
STARTCHAR ccircumflex
ENCODING 265
SWIDTH 390 0
DWIDTH 13 0
BBX 11 30 1 0
BITMAP
009000
02F000
07A800
0B0E00
1D0780
3801D0
7000B8
E00028
800000
000000
000000
02A000
0BF800
1E3800
3C2C00
781C00
740800
B00000
B00000
E00000
E00000
D00000
D00024
D00074
D000B4
E000F0
B001E0
7803C0
2EAF00
0BE400
ENDCHAR
STARTCHAR Cdotaccent
ENCODING 266
SWIDTH 487 0
DWIDTH 16 0
BBX 15 29 0 0
BITMAP
00014000
000B8000
00050000
00000000
00000000
00004000
000BF400
002E6D00
00780900
00F00000
01D00000
02C00000
03400000
07000000
0B000000
0E000000
1D000000
1C000000
2C000000
28000010
38000038
340000B4
740001F0
740002D0
38000B40
38002D00
2D00B400
0FABD000
02FD0000
ENDCHAR
STARTCHAR cdotaccent
ENCODING 267
SWIDTH 390 0
DWIDTH 13 0
BBX 12 23 0 0
BITMAP
005000
00E000
005000
000000
00A800
03FD00
0B8E00
0F0B00
1E0700
2D0200
2C0000
3C0000
380000
380000
340000
740009
74001D
34002D
38003C
2C0078
1E01F0
0BABC0
02F900
ENDCHAR
STARTCHAR Ccaron
ENCODING 268
SWIDTH 487 0
DWIDTH 16 0
BBX 15 30 0 0
BITMAP
06000000
038002C0
01D00B40
00742800
002DA000
000F4000
00014000
000BF400
002E6D00
00780900
00F00000
01D00000
02C00000
03400000
07000000
0B000000
0E000000
1D000000
1C000000
2C000000
28000010
38000038
340000B4
740001F0
740002D0
38000B40
38002D00
2D00B400
0FABD000
02FD0000
ENDCHAR
STARTCHAR ccaron
ENCODING 269
SWIDTH 390 0
DWIDTH 13 0
BBX 11 26 1 0
BITMAP
900000
700078
2801D0
0E0740
076D00
02E000
004000
02A000
0BF800
1E3800
3C2C00
781C00
740800
B00000
B00000
E00000
E00000
D00000
D00024
D00074
D000B4
E000F0
B001E0
7803C0
2EAF00
0BE400
ENDCHAR
STARTCHAR Dcaron
ENCODING 270
SWIDTH 554 0
DWIDTH 18 0
BBX 16 30 1 0
BITMAP
02400000
01C001E0
00A00780
00381D00
001D7400
00078000
05010000
0A000000
0FFFA500
7FAAAFD0
FF0001B8
8F00001E
0B00000B
0B00000B
0B00000A
0B00000E
0B00001D
07000028
07400074
074000E0
074002D0
03400B40
03401E00
03407C00
0341F000
0347D000
025F4000
017D0000
00B40000
00D00000
ENDCHAR
STARTCHAR Emacron
ENCODING 274
SWIDTH 474 0
DWIDTH 15 0
BBX 14 28 1 0
BITMAP
0016A900
AFFFFD00
65540000
00000000
00000100
6001BD00
F41FD000
B6FD0000
7FD00000
7D000000
74000000
34000000
38000000
38002800
3801F000
381F8000
29B80000
2F900000
2E000000
2D000000
2D0001E0
2D000B80
2D007D00
2D02E000
2D1F4000
2EF80000
2F900000
19000000
ENDCHAR
STARTCHAR emacron
ENCODING 275
SWIDTH 461 0
DWIDTH 15 0
BBX 15 24 -1 0
BITMAP
00015AA0
02BFFFF0
02955000
00000000
00000000
00000000
00000000
0006E400
002FFE00
007D0B40
00F40F40
01E07E00
02D2F400
07EF8000
0BF80000
1FD00004
7F40003C
1B4000B8
074001F0
074007D0
03400F40
03807D00
02EAE000
00BE4000
ENDCHAR
STARTCHAR Ebreve
ENCODING 276
SWIDTH 474 0
DWIDTH 15 0
BBX 14 30 1 0
BITMAP
01001400
03407800
02E1F400
00BFD000
001E4000
00000000
00000100
6001BD00
F41FD000
B6FD0000
7FD00000
7D000000
74000000
34000000
38000000
38002800
3801F000
381F8000
29B80000
2F900000
2E000000
2D000000
2D0001E0
2D000B80
2D007D00
2D02E000
2D1F4000
2EF80000
2F900000
19000000
ENDCHAR
STARTCHAR ebreve
ENCODING 277
SWIDTH 461 0
DWIDTH 15 0
BBX 15 24 -1 0
BITMAP
00100140
00380780
002E1F40
000BFD00
0001E400
00000000
00000000
0006E400
002FFE00
007D0B40
00F40F40
01E07E00
02D2F400
07EF8000
0BF80000
1FD00004
7F40003C
1B4000B8
074001F0
074007D0
03400F40
03807D00
02EAE000
00BE4000
ENDCHAR
STARTCHAR Edotaccent
ENCODING 278
SWIDTH 474 0
DWIDTH 15 0
BBX 14 26 1 0
BITMAP
00100000
00B40000
00500100
6001BD00
F41FD000
B6FD0000
7FD00000
7D000000
74000000
34000000
38000000
38002800
3801F000
381F8000
29B80000
2F900000
2E000000
2D000000
2D0001E0
2D000B80
2D007D00
2D02E000
2D1F4000
2EF80000
2F900000
19000000
ENDCHAR
STARTCHAR edotaccent
ENCODING 279
SWIDTH 461 0
DWIDTH 15 0
BBX 15 20 -1 0
BITMAP
00005000
0002E000
00014000
0006E400
002FFE00
007D0B40
00F40F40
01E07E00
02D2F400
07EF8000
0BF80000
1FD00004
7F40003C
1B4000B8
074001F0
074007D0
03400F40
03807D00
02EAE000
00BE4000
ENDCHAR
STARTCHAR Eogonek
ENCODING 280
SWIDTH 474 0
DWIDTH 15 0
BBX 14 27 1 -3
BITMAP
00000100
6001BD00
F41FD000
B6FD0000
7FD00000
7D000000
74000000
34000000
38000000
38002800
3801F000
381F8000
29B80000
2F900000
2E000000
2D000000
2D0001E0
2D000B80
2D007D00
2D02E000
2D1F8000
2EFF0000
2FAD0000
191D0000
001D0680
000FBFC0
0002FE00
ENDCHAR
STARTCHAR eogonek
ENCODING 281
SWIDTH 461 0
DWIDTH 15 0
BBX 15 24 -1 -7
BITMAP
0006E400
002FFE00
007D0B40
00F40F40
01E07E00
02D2F400
07EF8000
0BF80000
1FD00004
7F40003C
1B4000B8
074001F0
074007D0
03400F40
03807D00
02EAE000
00BF8000
001E0000
002C0000
002C0000
002C0100
002E6F80
000BFE00
00015400
ENDCHAR
STARTCHAR Ecaron
ENCODING 282
SWIDTH 474 0
DWIDTH 15 0
BBX 14 30 1 0
BITMAP
20000000
28001D00
0D00B400
0742C000
02DA0000
00B80000
00100100
6001BD00
F41FD000
B6FD0000
7FD00000
7D000000
74000000
34000000
38000000
38002800
3801F000
381F8000
29B80000
2F900000
2E000000
2D000000
2D0001E0
2D000B80
2D007D00
2D02E000
2D1F4000
2EF80000
2F900000
19000000
ENDCHAR
STARTCHAR ecaron
ENCODING 283
SWIDTH 461 0
DWIDTH 15 0
BBX 15 26 -1 0
BITMAP
02400000
01C001E0
00A00780
00381D00
001D7400
00078000
00010000
00000000
00000000
0006E400
002FFE00
007D0B40
00F40F40
01E07E00
02D2F400
07EF8000
0BF80000
1FD00004
7F40003C
1B4000B8
074001F0
074007D0
03400F40
03807D00
02EAE000
00BE4000
ENDCHAR
STARTCHAR Gcircumflex
ENCODING 284
SWIDTH 591 0
DWIDTH 19 0
BBX 19 34 0 -4
BITMAP
0000900000
0002F40000
0003AC0000
000B0A0000
001D038000
002801E000
0074007800
00A0002800
0080000000
00000A8000
00007F9000
0002E40000
000B400000
001D000000
0038000000
00B0000000
01D0000000
02C00016A4
074006FFE0
0B000AAB80
0D00000F40
1C00001F40
2800003F00
380000BF00
740002FF00
74000BCA00
78006E0E00
3E96F80F00
0FFFD00F00
01A9000F00
0000000F00
0000000B00
0000000B40
0000000100
ENDCHAR
STARTCHAR gcircumflex
ENCODING 285
SWIDTH 437 0
DWIDTH 14 0
BBX 13 44 0 -14
BITMAP
00180000
003E0000
00B78000
00E1D000
02C0B400
07402D00
0A000F40
1D000340
18000000
00000000
00000000
00000000
00006400
000BFE00
002E7E00
00B43F00
01D07F00
0380AF00
0741DF00
0E02CF40
1D038B40
2C0B4B40
380E0B40
742D0B80
70780B80
75F40B80
3FD00780
2F4007C0
040007C0
000007C0
000007C0
00000780
00000780
00000780
00000B40
00000B00
00000E00
00001D00
00003C00
0000B400
0001F000
001BD000
07FF4000
01A40000
ENDCHAR
STARTCHAR Gbreve
ENCODING 286
SWIDTH 591 0
DWIDTH 19 0
BBX 19 31 0 -4
BITMAP
0000002000
000700B400
0003D2E000
0000FFC000
00002E0000
0000000000
00000A8000
00007F9000
0002E40000
000B400000
001D000000
0038000000
00B0000000
01D0000000
02C00016A4
074006FFE0
0B000AAB80
0D00000F40
1C00001F40
2800003F00
380000BF00
740002FF00
74000BCA00
78006E0E00
3E96F80F00
0FFFD00F00
01A9000F00
0000000F00
0000000B00
0000000B40
0000000100
ENDCHAR
STARTCHAR gbreve
ENCODING 287
SWIDTH 437 0
DWIDTH 14 0
BBX 13 40 0 -14
BITMAP
00000800
01C02D00
00F4B800
003FF000
000B8000
00000000
00000000
00000000
00006400
000BFE00
002E7E00
00B43F00
01D07F00
0380AF00
0741DF00
0E02CF40
1D038B40
2C0B4B40
380E0B40
742D0B80
70780B80
75F40B80
3FD00780
2F4007C0
040007C0
000007C0
000007C0
00000780
00000780
00000780
00000B40
00000B00
00000E00
00001D00
00003C00
0000B400
0001F000
001BD000
07FF4000
01A40000
ENDCHAR
STARTCHAR Gdotaccent
ENCODING 288
SWIDTH 591 0
DWIDTH 19 0
BBX 18 30 1 -4
BITMAP
0000500000
0001F00000
0000500000
0000000000
0000000000
00001A8000
0000BF8000
0003E40000
000E000000
002C000000
0074000000
00E0000000
02C0000000
0740001AA0
0B0007FFD0
0D001AAF40
2C00001F00
3800002E00
7400007E00
700001FE00
B00003ED00
B0000F9D00
B4007D1D00
7E5BF41D00
1FFF801D00
01A4001E00
0000001E00
0000001E00
0000000E00
0000000400
ENDCHAR
STARTCHAR gdotaccent
ENCODING 289
SWIDTH 437 0
DWIDTH 14 0
BBX 13 36 0 -14
BITMAP
00005000
0001E000
00004000
00000000
00006400
000BFE00
002E7E00
00B43F00
01D07F00
0380AF00
0741DF00
0E02CF40
1D038B40
2C0B4B40
380E0B40
742D0B80
70780B80
75F40B80
3FD00780
2F4007C0
040007C0
000007C0
000007C0
00000780
00000780
00000780
00000B40
00000B00
00000E00
00001D00
00003C00
0000B400
0001F000
001BD000
07FF4000
01A40000
ENDCHAR
STARTCHAR Gcommaaccent
ENCODING 290
SWIDTH 591 0
DWIDTH 19 0
BBX 19 32 0 -11
BITMAP
00000A8000
00007F9000
0002E40000
000B400000
001D000000
0038000000
00B0000000
01D0000000
02C00016A4
074006FFE0
0B000AAB80
0D00000F40
1C00001F40
2800003F00
380000BF00
740002FF00
74000BCA00
78006E0E00
3E96F80F00
0FFFD00F00
01A9000F00
0000000F00
0000000B00
0000000B40
0000700100
0000F40000
0000B40000
0000B40000
0000B00000
0000B00000
0000A00000
0000400000
ENDCHAR
STARTCHAR Hcircumflex
ENCODING 292
SWIDTH 424 0
DWIDTH 14 0
BBX 12 33 1 0
BITMAP
009000
02F000
07AC00
0B0E00
1D0780
2801D0
7400B8
E00028
800000
000000
000000
000040
E000E0
E000F0
E000B0
E00070
E00074
E00074
E00074
A00074
B000B8
B002F8
B01BA8
B5B92C
BFD02C
BE002C
B4001C
B0001D
70001D
70001D
70000D
74000E
700009
ENDCHAR
STARTCHAR hcircumflex
ENCODING 293
SWIDTH 466 0
DWIDTH 15 0
BBX 15 31 1 -1
BITMAP
00018000
0003E000
000B7400
001D1D00
00280B40
007402C0
50A000F4
E1C00074
E1400000
E0000000
E0000000
E0000000
E0000000
E0000000
F0006900
F00BFF40
F02FD780
F07F03C0
F0BC03C0
F0F403C0
F2E003C0
F3D002C0
F78002C0
FB4002C0
FE0002C0
FD0002C0
FC0002C0
F40002C0
F00002C0
500002C0
00000040
ENDCHAR
STARTCHAR Hbar
ENCODING 294
SWIDTH 424 0
DWIDTH 14 0
BBX 13 22 0 0
BITMAP
00001000
38003800
38003C00
38002C00
38001C00
38001D00
39ABFF00
7FFAAE00
38001D00
2C002E00
2C00BE00
2C06EA00
2D6E4B00
2FF40B00
2F800B00
2D000700
2C000740
1C000740
1C000740
1C000340
1D000380
1C000240
ENDCHAR
STARTCHAR hbar
ENCODING 295
SWIDTH 466 0
DWIDTH 15 0
BBX 16 25 -2 -1
BITMAP
01400000
03800000
03800000
03800000
03800000
03800000
03805400
57FFFE00
BFEA56A4
03C02FFD
03C0BF5E
03C1FC0F
03C2F00F
03C3D00F
03CB800F
03CF400B
03DE000B
03ED000B
03F8000B
03F4000B
03F0000B
03D0000B
03C0000B
0140000B
00000001
ENDCHAR
STARTCHAR Itilde
ENCODING 296
SWIDTH 153 0
DWIDTH 5 0
BBX 13 32 -4 0
BITMAP
06A40100
2EBC0B80
3C1E1F40
740FBE00
1007F400
00004000
00000000
00000000
00190000
001D0000
000D0000
000E0000
000E0000
000E0000
000E0000
000E0000
000A0000
000B0000
000B0000
000B0000
000B0000
000B0000
000B0000
000B0000
000B0000
000B0000
000B0000
000B0000
000B0000
000B0000
000B0000
00060000
ENDCHAR
STARTCHAR itilde
ENCODING 297
SWIDTH 132 0
DWIDTH 4 0
BBX 12 25 -4 0
BITMAP
1FF406
7DB81F
B43D3E
A01FF8
0007D0
000000
000000
002C00
003C00
003C00
003C00
003C00
003C00
003C00
003C00
003C00
003C00
003C00
002C00
002C00
002C00
002C00
002C00
002C00
002C00
ENDCHAR
STARTCHAR imacron
ENCODING 299
SWIDTH 132 0
DWIDTH 4 0
BBX 12 24 -4 0
BITMAP
0015AA
6FFFFE
695400
000000
000000
000000
002C00
003C00
003C00
003C00
003C00
003C00
003C00
003C00
003C00
003C00
003C00
002C00
002C00
002C00
002C00
002C00
002C00
002C00
ENDCHAR
STARTCHAR Ibreve
ENCODING 300
SWIDTH 153 0
DWIDTH 5 0
BBX 8 31 -1 0
BITMAP
4005
E01E
B87D
2FF4
0790
0000
0000
0640
0740
0340
0380
0380
0380
0380
0380
0280
02C0
02C0
02C0
02C0
02C0
02C0
02C0
02C0
02C0
02C0
02C0
02C0
02C0
02C0
0180
ENDCHAR
STARTCHAR ibreve
ENCODING 301
SWIDTH 132 0
DWIDTH 4 0
BBX 9 25 -2 0
BITMAP
600740
380F40
1FBD00
07F400
004000
000000
000000
02C000
03C000
03C000
03C000
03C000
03C000
03C000
03C000
03C000
03C000
03C000
02C000
02C000
02C000
02C000
02C000
02C000
02C000
ENDCHAR
STARTCHAR Iogonek
ENCODING 302
SWIDTH 153 0
DWIDTH 5 0
BBX 8 31 0 -7
BITMAP
1900
1D00
0D00
0E00
0E00
0E00
0E00
0E00
0A00
0B00
0B00
0B00
0B00
0B00
0B00
0B00
0B00
0B00
0B00
0B00
0B00
0B00
0B40
2E00
7800
B400
B000
B005
7EBE
1FF8
0140
ENDCHAR
STARTCHAR iogonek
ENCODING 303
SWIDTH 132 0
DWIDTH 4 0
BBX 8 32 -1 -8
BITMAP
0800
1D00
0400
0000
0000
0000
0B00
0F00
0F00
0F00
0F00
0F00
0F00
0F00
0F00
0F00
0F00
0B00
0B00
0B00
0B00
0B00
0B00
0F00
2E00
7800
B000
B000
B005
79BE
2FF8
0140
ENDCHAR
STARTCHAR Idotaccent
ENCODING 304
SWIDTH 153 0
DWIDTH 5 0
BBX 3 29 1 0
BITMAP
14
B8
50
00
00
A0
B0
70
74
74
74
74
74
34
34
38
38
38
38
38
38
38
38
38
38
38
38
38
24
ENDCHAR
STARTCHAR dotlessi
ENCODING 305
SWIDTH 132 0
DWIDTH 4 0
BBX 2 18 1 0
BITMAP
B0
F0
F0
F0
F0
F0
F0
F0
F0
F0
F0
B0
B0
B0
B0
B0
B0
B0
ENDCHAR
STARTCHAR Jcircumflex
ENCODING 308
SWIDTH 371 0
DWIDTH 12 0
BBX 14 34 0 -2
BITMAP
00060000
000F8000
002DD000
00747400
00A02D00
01D00B00
028003D0
070001D0
05000000
00018000
0001C000
0001C000
0001D000
0001D000
0001E000
0000E000
0000F000
0000B000
0000B000
0000B400
00007400
00007400
00007800
00003800
00003800
00003800
00002800
40002800
50002800
70002800
28002800
1D003400
0791E000
00BF8000
ENDCHAR
STARTCHAR jcircumflex
ENCODING 309
SWIDTH 112 0
DWIDTH 4 0
BBX 14 41 -6 -11
BITMAP
000A0000
001F8000
002DD000
0074B400
00A02C00
01D00F00
038007D0
070001D0
09000000
00000000
00000000
00000000
00000000
00010000
00038000
00038000
00038000
00038000
00038000
00038000
00038000
00038000
00038000
00038000
0002C000
0002C000
0002C000
0002C000
0001D000
0001D000
0001D000
0001D000
0001D000
0001D000
0001D000
0002C000
6002C000
78038000
1E0B4000
06FE0000
00680000
ENDCHAR
STARTCHAR Kcommaaccent
ENCODING 310
SWIDTH 524 0
DWIDTH 17 0
BBX 16 33 1 -11
BITMAP
50000000
E0000000
B0001D00
B0007800
7000F000
7402D000
74078000
340F0000
382D0000
38780000
38B00000
2DD00000
2F800000
2F400000
2F000000
1F400000
1FFFFAA9
1EAAAAA8
0E000000
0E000000
0B000000
06000000
00000000
00000000
00000000
000B0000
000F4000
000B4000
000B4000
000B0000
000A0000
000A0000
00040000
ENDCHAR
STARTCHAR kcommaaccent
ENCODING 311
SWIDTH 428 0
DWIDTH 14 0
BBX 12 35 1 -10
BITMAP
100000
740000
780000
780000
780000
780000
78000A
B4001F
B4003D
B400B8
B401F4
B403E0
B00BC0
B01F40
B07E00
B0F800
F2E000
FF8000
FE0000
FD0000
FF8000
E6F900
E01FF9
E001BE
D00005
C00000
000000
000000
007400
007800
007800
007800
007400
007400
007000
ENDCHAR
STARTCHAR Lacute
ENCODING 313
SWIDTH 537 0
DWIDTH 17 0
BBX 16 23 1 0
BITMAP
00007000
0001F000
0007D000
F00B4000
F0000000
F4000000
F4000000
F4000000
B4000000
B4000000
B4000000
B4000000
B4000000
B4000000
B4000000
B8000000
B800002F
B80006F9
B8006F40
B807F400
79BF4000
7FF40000
7E400000
ENDCHAR
STARTCHAR lacute
ENCODING 314
SWIDTH 137 0
DWIDTH 4 0
BBX 4 35 0 0
BITMAP
0B
2F
7C
B0
00
00
00
00
74
34
34
38
28
28
28
2C
1C
1C
1C
1C
1C
1C
1D
1D
1D
1D
1D
1D
1D
1D
1D
1D
1D
1D
04
ENDCHAR
STARTCHAR Lcommaaccent
ENCODING 315
SWIDTH 537 0
DWIDTH 17 0
BBX 16 30 1 -10
BITMAP
F0000000
F0000000
F4000000
F4000000
F4000000
B4000000
B4000000
B4000000
B4000000
B4000000
B4000000
B4000000
B8000000
B800002F
B80006F9
B8006F40
B807F400
79BF4000
7FF40000
7E400000
00000000
00000000
00000000
00074000
000B8000
000B8000
00074000
00074000
000B0000
000A0000
ENDCHAR
STARTCHAR lcommaaccent
ENCODING 316
SWIDTH 137 0
DWIDTH 4 0
BBX 4 38 0 -11
BITMAP
74
34
34
38
28
28
28
2C
1C
1C
1C
1C
1C
1C
1D
1D
1D
1D
1D
1D
1D
1D
1D
1D
1D
1D
04
00
00
00
28
3D
3D
2C
2C
38
34
10
ENDCHAR
STARTCHAR Lcaron
ENCODING 317
SWIDTH 537 0
DWIDTH 17 0
BBX 16 30 1 0
BITMAP
20000000
28001D00
0D00B400
0742C000
02DA0000
00B80000
00100000
00000000
00000000
00000000
F0000000
F0000000
F4000000
F4000000
F4000000
B4000000
B4000000
B4000000
B4000000
B4000000
B4000000
B4000000
B8000000
B800002F
B80006F9
B8006F40
B807F400
79BF4000
7FF40000
7E400000
ENDCHAR
STARTCHAR Ldot
ENCODING 319
SWIDTH 537 0
DWIDTH 17 0
BBX 16 20 1 0
BITMAP
F0000000
F0000000
F4000000
F4000000
F4000000
B4000000
B4000000
B4000000
B4000000
B4000000
B4000000
B4078000
B8074000
B800002F
B80006F9
B8006F40
B807F400
79BF4000
7FF40000
7E400000
ENDCHAR
STARTCHAR ldot
ENCODING 320
SWIDTH 267 0
DWIDTH 9 0
BBX 8 27 0 0
BITMAP
7400
3400
3400
3800
2800
2800
2800
2C00
1C00
1C00
1C00
1C00
1C00
1C00
1D00
1D00
1D00
1D00
1D2D
1D2C
1D00
1D00
1D00
1D00
1D00
1D00
0400
ENDCHAR
STARTCHAR Lslash
ENCODING 321
SWIDTH 537 0
DWIDTH 17 0
BBX 18 20 -1 0
BITMAP
0F00000000
0F00000000
0F40000000
0F40000000
0F40000000
0B40000000
0B40000000
0B40000000
0B40000000
0B406D0000
0B5BFD0000
0BFF900000
BFE4000000
AB800002F0
0B80006F90
0B8006F400
0B807F4000
079BF40000
07FF400000
07E4000000
ENDCHAR
STARTCHAR lslash
ENCODING 322
SWIDTH 137 0
DWIDTH 4 0
BBX 12 27 -4 0
BITMAP
007400
003400
003400
003800
002800
002800
002800
002C00
001C00
001C00
001C00
001C00
001C00
001C00
001D00
001D00
001D05
001EBF
002FF9
16FE40
7E9D00
001D00
001D00
001D00
001D00
001D00
000400
ENDCHAR
STARTCHAR Nacute
ENCODING 323
SWIDTH 541 0
DWIDTH 17 0
BBX 15 27 1 0
BITMAP
00074000
001F0000
007D0040
007401D0
000001E0
000000E0
800000F0
F40000B0
FC0000B0
FE0000B0
BF8000B0
BBD000B0
75F000B0
74780070
742E0070
340B4074
3803C074
3801E074
28007474
2C002DB4
2C000BB4
1D0003F4
1D0001F8
1E0000BC
0E00007C
0E000014
09000000
ENDCHAR
STARTCHAR nacute
ENCODING 324
SWIDTH 483 0
DWIDTH 15 0
BBX 14 24 1 0
BITMAP
00038000
000F4000
002E0000
00380000
00000000
40006400
D002FD00
E00BFE00
E01F0B00
F03D0340
B0780380
B0B40380
B4F003C0
B4E002C0
B5D002C0
7AC002C0
7B8002D0
7F4002D0
7F4002D0
7F0001D0
3E0001D0
3E0001D0
3D0001D0
28000040
ENDCHAR
STARTCHAR Ncommaaccent
ENCODING 325
SWIDTH 541 0
DWIDTH 17 0
BBX 15 35 1 -10
BITMAP
00000040
000001D0
000001E0
000000E0
800000F0
F40000B0
FC0000B0
FE0000B0
BF8000B0
BBD000B0
75F000B0
74780070
742E0070
340B4074
3803C074
3801E074
28007474
2C002DB4
2C000BB4
1D0003F4
1D0001F8
1E0000BC
0E00007C
0E000014
09000000
00000000
00000000
00000000
00074000
000B8000
000B8000
00074000
00074000
00070000
000A0000
ENDCHAR
STARTCHAR ncommaaccent
ENCODING 326
SWIDTH 483 0
DWIDTH 15 0
BBX 14 29 1 -10
BITMAP
40006400
D002FD00
E00BFE00
E01F0B00
F03D0340
B0780380
B0B40380
B4F003C0
B4E002C0
B5D002C0
7AC002C0
7B8002D0
7F4002D0
7F4002D0
7F0001D0
3E0001D0
3E0001D0
3D0001D0
28000040
00000000
00000000
00000000
001D0000
002E0000
001E0000
001E0000
001D0000
001C0000
001C0000
ENDCHAR
STARTCHAR Ncaron
ENCODING 327
SWIDTH 541 0
DWIDTH 17 0
BBX 15 29 1 0
BITMAP
08000000
0B000780
02801D00
00E07400
0076D040
002E01D0
000401E0
000000E0
800000F0
F40000B0
FC0000B0
FE0000B0
BF8000B0
BBD000B0
75F000B0
74780070
742E0070
340B4074
3803C074
3801E074
28007474
2C002DB4
2C000BB4
1D0003F4
1D0001F8
1E0000BC
0E00007C
0E000014
09000000
ENDCHAR
STARTCHAR ncaron
ENCODING 328
SWIDTH 483 0
DWIDTH 15 0
BBX 14 26 1 0
BITMAP
14000000
0D000B00
07402800
02C0E000
00A74000
003D0000
00000000
40006400
D002FD00
E00BFE00
E01F0B00
F03D0340
B0780380
B0B40380
B4F003C0
B4E002C0
B5D002C0
7AC002C0
7B8002D0
7F4002D0
7F4002D0
7F0001D0
3E0001D0
3E0001D0
3D0001D0
28000040
ENDCHAR
STARTCHAR napostrophe
ENCODING 329
SWIDTH 483 0
DWIDTH 15 0
BBX 14 28 1 0
BITMAP
02800000
07C00000
03C00000
03C00000
03800000
03800000
03400000
01000000
00000000
40006400
D002FD00
E00BFE00
E01F0B00
F03D0340
B0780380
B0B40380
B4F003C0
B4E002C0
B5D002C0
7AC002C0
7B8002D0
7F4002D0
7F4002D0
7F0001D0
3E0001D0
3E0001D0
3D0001D0
28000040
ENDCHAR
STARTCHAR Omacron
ENCODING 332
SWIDTH 382 0
DWIDTH 12 0
BBX 14 26 0 0
BITMAP
00016A90
0AFFFFD0
0A554000
00000000
00054000
007FE000
00FAF800
02D03C00
07801D00
0B401E00
0F000E00
1E000E00
2D000E00
2C000E00
38000E00
38001E00
74001D00
74002D00
74003C00
B0007800
7400B400
7400F000
3802D000
2E1B8000
0FFE0000
06E40000
ENDCHAR
STARTCHAR omacron
ENCODING 333
SWIDTH 266 0
DWIDTH 9 0
BBX 12 24 -2 0
BITMAP
0015AA
6FFFFF
695500
000000
000000
000000
002800
00BE00
00FB80
01D0D0
0280A0
0280A0
0340B0
0340B0
0740B0
0740B0
0740F0
0740E0
0741E0
0742D0
074380
038B40
03FD00
01E400
ENDCHAR
STARTCHAR Obreve
ENCODING 334
SWIDTH 382 0
DWIDTH 12 0
BBX 12 28 0 0
BITMAP
000020
0B00B0
03D2E0
01FF80
006E00
000000
000540
007FE0
00FAF8
02D03C
07801D
0B401E
0F000E
1E000E
2D000E
2C000E
38000E
38001E
74001D
74002D
74003C
B00078
7400B4
7400F0
3802D0
2E1B80
0FFE00
06E400
ENDCHAR
STARTCHAR obreve
ENCODING 335
SWIDTH 266 0
DWIDTH 9 0
BBX 9 24 0 0
BITMAP
100140
340780
2D1F40
0BFD00
02E400
000000
028000
0BE000
0FB800
1D0D00
280A00
280A00
340B00
340B00
740B00
740B00
740F00
740E00
741E00
742D00
743800
38B400
3FD000
1E4000
ENDCHAR
STARTCHAR Ohungarumlaut
ENCODING 336
SWIDTH 382 0
DWIDTH 12 0
BBX 13 28 0 0
BITMAP
00009000
0002D340
000B8F40
001E2E00
00087800
00001000
00054000
007FE000
00FAF800
02D03C00
07801D00
0B401E00
0F000E00
1E000E00
2D000E00
2C000E00
38000E00
38001E00
74001D00
74002D00
74003C00
B0007800
7400B400
7400F000
3802D000
2E1B8000
0FFE0000
06E40000
ENDCHAR
STARTCHAR ohungarumlaut
ENCODING 337
SWIDTH 266 0
DWIDTH 9 0
BBX 8 24 0 0
BITMAP
0080
03C7
0F9F
2E7D
14B4
0000
0280
0BE0
0FB8
1D0D
280A
280A
340B
340B
740B
740B
740F
740E
741E
742D
7438
38B4
3FD0
1E40
ENDCHAR
STARTCHAR OE
ENCODING 338
SWIDTH 732 0
DWIDTH 23 0
BBX 23 23 0 0
BITMAP
000004000680
00066D01BE00
007FFE1FE000
00FAFFFE0000
02D03FE00000
07801E000000
0B401E000000
0F000E000000
1E000E000200
2D000F001E00
2C000F01B800
38000F0B9000
38001FB90000
74001FD00000
74002F800000
74003F800014
B0007F8001B8
7400BB8007D0
7400F7802E00
3802D781F400
2E1B879F8000
0FFE07F90000
06E407900000
ENDCHAR
STARTCHAR oe
ENCODING 339
SWIDTH 628 0
DWIDTH 20 0
BBX 20 18 0 0
BITMAP
0280001000
0BE002FE00
0FB80BDBC0
1D0D1F02D0
280A3D07D0
280A781F40
340BB5F800
340BFF9000
740BFD0000
740BE00006
740FE0000F
740FD0002E
741ED000B8
742DD001E0
743CD00780
38B4A02E00
3FE07FF400
1E400A4000
ENDCHAR
STARTCHAR Racute
ENCODING 340
SWIDTH 503 0
DWIDTH 16 0
BBX 15 30 1 0
BITMAP
00007000
0001F000
0007D000
00074000
50000000
B401A400
B46FFF90
B6F956F0
BF4000F4
B80000E0
B4000380
B4001E00
B000B400
B00B8000
B07D0000
B7E00000
BF400000
B8000000
BD000000
BFD00000
A6FD0000
A06FD000
A006F900
A0006FD0
A00002F8
A0000024
A0000000
A0000000
A0000000
50000000
ENDCHAR
STARTCHAR racute
ENCODING 341
SWIDTH 396 0
DWIDTH 13 0
BBX 11 23 1 0
BITMAP
000A00
002E00
00B800
00A000
000000
000000
000050
901FF8
E07EA4
E0F400
A1E000
B2D000
72C000
77C000
778000
378000
3B8000
2F8000
2F4000
1F4000
1F4000
0F4000
0A0000
ENDCHAR
STARTCHAR Rcommaaccent
ENCODING 342
SWIDTH 503 0
DWIDTH 16 0
BBX 15 37 1 -11
BITMAP
50000000
B401A400
B46FFF90
B6F956F0
BF4000F4
B80000E0
B4000380
B4001E00
B000B400
B00B8000
B07D0000
B7E00000
BF400000
B8000000
BD000000
BFD00000
A6FD0000
A06FD000
A006F900
A0006FD0
A00002F8
A0000024
A0000000
A0000000
A0000000
50000000
00000000
00000000
00000000
000A0000
001F0000
000F0000
000F0000
000E0000
000D0000
000D0000
00040000
ENDCHAR
STARTCHAR rcommaaccent
ENCODING 343
SWIDTH 396 0
DWIDTH 13 0
BBX 11 28 1 -11
BITMAP
000050
901FF8
E07EA4
E0F400
A1E000
B2D000
72C000
77C000
778000
378000
3B8000
2F8000
2F4000
1F4000
1F4000
0F4000
0A0000
000000
000000
000000
00B000
00F400
00B400
00B400
00B000
00A000
00A000
004000
ENDCHAR
STARTCHAR Rcaron
ENCODING 344
SWIDTH 503 0
DWIDTH 16 0
BBX 15 33 1 0
BITMAP
05000000
074002C0
01C00E00
00B07800
0039D000
001F4000
00000000
50000000
B401A400
B46FFF90
B6F956F0
BF4000F4
B80000E0
B4000380
B4001E00
B000B400
B00B8000
B07D0000
B7E00000
BF400000
B8000000
BD000000
BFD00000
A6FD0000
A06FD000
A006F900
A0006FD0
A00002F8
A0000024
A0000000
A0000000
A0000000
50000000
ENDCHAR
STARTCHAR rcaron
ENCODING 345
SWIDTH 396 0
DWIDTH 13 0
BBX 11 26 1 0
BITMAP
900000
700078
2801E0
0E0740
075D00
01E000
004000
000000
000000
000050
901FF8
E07EA4
E0F400
A1E000
B2D000
72C000
77C000
778000
378000
3B8000
2F8000
2F4000
1F4000
1F4000
0F4000
0A0000
ENDCHAR
STARTCHAR Sacute
ENCODING 346
SWIDTH 541 0
DWIDTH 17 0
BBX 17 28 0 0
BITMAP
00002C0000
0000B80000
0001F00000
0002800000
0000014000
0000BFC000
000B9BC000
002D010000
01F0000000
0780000000
0F00000000
2D00000000
3800000000
7400000000
B000000000
B000000000
7800000000
1E40000000
06FA950000
0016BFF900
0000005F40
0000000740
0000001F00
000001F800
00006F9000
001BF90000
00FE400000
0050000000
ENDCHAR
STARTCHAR sacute
ENCODING 347
SWIDTH 366 0
DWIDTH 12 0
BBX 12 24 0 -1
BITMAP
000740
001F40
003D00
007400
000000
000000
000000
002FE0
01FA90
078000
0F0000
2D0000
380000
340000
7406A4
3EBFFC
2FE46D
01002D
000078
0001F0
000BC0
007F00
01F800
019000
ENDCHAR
STARTCHAR Scircumflex
ENCODING 348
SWIDTH 541 0
DWIDTH 17 0
BBX 17 33 0 0
BITMAP
0000900000
0002F00000
0007AC0000
000B0E0000
001D078000
002801E000
007400B800
00E0002800
0080000000
0000014000
0000BFC000
000B9BC000
002D010000
01F0000000
0780000000
0F00000000
2D00000000
3800000000
7400000000
B000000000
B000000000
7800000000
1E40000000
06FA950000
0016BFF900
0000005F40
0000000740
0000001F00
000001F800
00006F9000
001BF90000
00FE400000
0050000000
ENDCHAR
STARTCHAR scircumflex
ENCODING 349
SWIDTH 366 0
DWIDTH 12 0
BBX 12 27 0 -1
BITMAP
002400
00BC00
01EA00
02C380
0741E0
0E0074
1C002E
38000A
200000
000000
002FE0
01FA90
078000
0F0000
2D0000
380000
340000
7406A4
3EBFFC
2FE46D
01002D
000078
0001F0
000BC0
007F00
01F800
019000
ENDCHAR
STARTCHAR Scedilla
ENCODING 350
SWIDTH 541 0
DWIDTH 17 0
BBX 18 33 0 -9
BITMAP
0000014000
0000BFC000
000B9BC000
002D010000
01F0000000
0780000000
0F00000000
2D00000000
3800000000
7400000000
B000000000
B000000000
7800000000
1E40000000
06FA950000
0016BFF900
0000005F40
0000000740
0000001F00
000001F800
00006F9000
001BFA0000
00FE470000
00500B0000
00000B0000
00000BD000
000007F800
000001BF40
0000000BD0
00000003E0
0000005FE0
000007FF80
0000069400
ENDCHAR
STARTCHAR scedilla
ENCODING 351
SWIDTH 366 0
DWIDTH 12 0
BBX 12 26 0 -10
BITMAP
002FE0
01FA90
078000
0F0000
2D0000
380000
340000
7406A4
3EBFFC
2FE46D
01002D
000078
0001F0
000BC0
007F00
01F800
01F400
007000
007800
007F40
001FF4
0001BD
00002E
00007F
002BFD
007E90
ENDCHAR
STARTCHAR Scaron
ENCODING 352
SWIDTH 541 0
DWIDTH 17 0
BBX 17 30 0 0
BITMAP
0140000000
01D000B000
0070038000
00281E0000
000E740000
0007D00000
0000014000
0000BFC000
000B9BC000
002D010000
01F0000000
0780000000
0F00000000
2D00000000
3800000000
7400000000
B000000000
B000000000
7800000000
1E40000000
06FA950000
0016BFF900
0000005F40
0000000740
0000001F00
000001F800
00006F9000
001BF90000
00FE400000
0050000000
ENDCHAR
STARTCHAR scaron
ENCODING 353
SWIDTH 366 0
DWIDTH 12 0
BBX 12 25 0 -1
BITMAP
600000
38002C
1D00B4
074280
02DA00
00F400
001000
000000
002FE0
01FA90
078000
0F0000
2D0000
380000
340000
7406A4
3EBFFC
2FE46D
01002D
000078
0001F0
000BC0
007F00
01F800
019000
ENDCHAR
STARTCHAR Tcommaaccent
ENCODING 354
SWIDTH 595 0
DWIDTH 19 0
BBX 22 33 0 -10
BITMAP
000009000560
00001FABFFD0
056BFFFA9400
7FFA5F000000
69400F000000
00000B000000
00000B000000
000007000000
000007400000
000007400000
000007400000
000003800000
000003800000
000003C00000
000002C00000
000002C00000
000002D00000
000002D00000
000001D00000
000001E00000
000000E00000
000000E00000
000000A00000
000000000000
000000000000
000000000000
000000340000
000000780000
0000007C0000
000000380000
000000780000
000000740000
000000700000
ENDCHAR
STARTCHAR tcommaaccent
ENCODING 355
SWIDTH 268 0
DWIDTH 9 0
BBX 10 36 -1 -11
BITMAP
010000
03C000
038000
038000
038000
038000
038000
0381A0
03FFE0
1BFE00
BFD000
FF8000
578000
078000
078000
038000
038000
038000
038000
03C000
03C000
02C000
02C000
02C000
02C000
018000
000000
000000
00B000
00F400
00B400
00B400
00B000
00A000
00A000
004000
ENDCHAR
STARTCHAR Tcaron
ENCODING 356
SWIDTH 595 0
DWIDTH 19 0
BBX 22 32 0 0
BITMAP
000200000000
0002C001E000
0000A0074000
0000381D0000
00001DB40000
00000B800000
000001000000
000000000000
000000000000
000009000560
00001FABFFD0
056BFFFA9400
7FFA5F000000
69400F000000
00000B000000
00000B000000
000007000000
000007400000
000007400000
000007400000
000003800000
000003800000
000003C00000
000002C00000
000002C00000
000002D00000
000002D00000
000001D00000
000001E00000
000000E00000
000000E00000
000000A00000
ENDCHAR
STARTCHAR Tbar
ENCODING 358
SWIDTH 595 0
DWIDTH 19 0
BBX 22 23 0 0
BITMAP
000009000560
00001FABFFD0
056BFFFA9400
7FFA5F000000
69400F000000
00000B000000
00000B000000
00001BAF8000
002FFFFE4000
001557400000
000007400000
000003800000
000003800000
000003C00000
000002C00000
000002C00000
000002D00000
000002D00000
000001D00000
000001E00000
000000E00000
000000E00000
000000A00000
ENDCHAR
STARTCHAR Utilde
ENCODING 360
SWIDTH 450 0
DWIDTH 14 0
BBX 13 31 1 -4
BITMAP
06A40100
2EBC0B80
7C2D1F40
740FBD00
1007F400
00004000
00000000
00000600
F0000B40
F0000B40
F0000F40
F0000F40
F0001F40
F0001F40
F0002F00
B0002F00
B0003F00
B0003F00
B0007F00
B000BB00
B000E700
B001D700
7002C740
74074340
3D1E0340
1FF80380
06900380
00000280
00000280
00000280
00000140
ENDCHAR
STARTCHAR utilde
ENCODING 361
SWIDTH 387 0
DWIDTH 12 0
BBX 12 24 0 -1
BITMAP
0AA001
7EF41F
B43C2E
E02EBC
400BE0
000140
000000
140010
380074
380074
380074
380074
3C0074
2C00B4
2C00B4
2C00B4
2C00F4
2C02F4
1D03F4
1D0BB8
0E2F38
0BBD2C
03F02D
004008
ENDCHAR
STARTCHAR Umacron
ENCODING 362
SWIDTH 450 0
DWIDTH 14 0
BBX 13 28 1 -4
BITMAP
0015AA00
6FFFFE00
69540000
00000000
00000600
F0000B40
F0000B40
F0000F40
F0000F40
F0001F40
F0001F40
F0002F00
B0002F00
B0003F00
B0003F00
B0007F00
B000BB00
B000E700
B001D700
7002C740
74074340
3D1E0340
1FF80380
06900380
00000280
00000280
00000280
00000140
ENDCHAR
STARTCHAR umacron
ENCODING 363
SWIDTH 387 0
DWIDTH 12 0
BBX 12 25 0 -1
BITMAP
0015AA
6FFFFF
695400
000000
000000
000000
000000
000000
140010
380074
380074
380074
380074
3C0074
2C00B4
2C00B4
2C00B4
2C00F4
2C02F4
1D03F4
1D0BB8
0E2F38
0BBD2C
03F02D
004008
ENDCHAR
STARTCHAR Ubreve
ENCODING 364
SWIDTH 450 0
DWIDTH 14 0
BBX 13 28 1 -4
BITMAP
01001400
07407400
02D2F000
00BFD000
002E0600
F0000B40
F0000B40
F0000F40
F0000F40
F0001F40
F0001F40
F0002F00
B0002F00
B0003F00
B0003F00
B0007F00
B000BB00
B000E700
B001D700
7002C740
74074340
3D1E0340
1FF80380
06900380
00000280
00000280
00000280
00000140
ENDCHAR
STARTCHAR ubreve
ENCODING 365
SWIDTH 387 0
DWIDTH 12 0
BBX 11 25 1 -1
BITMAP
040050
1D01D0
0B47C0
02FF40
00B800
000000
000000
000000
500040
E001D0
E001D0
E001D0
E001D0
F001D0
B002D0
B002D0
B002D0
B003D0
B00BD0
740FD0
742EE0
38BCE0
2EF4B0
0FC0B4
010020
ENDCHAR
STARTCHAR Uring
ENCODING 366
SWIDTH 450 0
DWIDTH 14 0
BBX 13 30 1 -4
BITMAP
00690000
03FFD000
0B41E000
0B00E000
0796D000
01BA4000
00000600
F0000B40
F0000B40
F0000F40
F0000F40
F0001F40
F0001F40
F0002F00
B0002F00
B0003F00
B0003F00
B0007F00
B000BB00
B000E700
B001D700
7002C740
74074340
3D1E0340
1FF80380
06900380
00000280
00000280
00000280
00000140
ENDCHAR
STARTCHAR uring
ENCODING 367
SWIDTH 387 0
DWIDTH 12 0
BBX 11 23 1 -1
BITMAP
016900
0BFF40
1E0780
1D03C0
0F5B80
06F900
500040
E001D0
E001D0
E001D0
E001D0
F001D0
B002D0
B002D0
B002D0
B003D0
B00BD0
740FD0
742EE0
38BCE0
2EF4B0
0FC0B4
010020
ENDCHAR
STARTCHAR Uhungarumlaut
ENCODING 368
SWIDTH 450 0
DWIDTH 14 0
BBX 13 31 1 -4
BITMAP
00140000
0078A000
01F6E000
03DBC000
024E0000
00040000
00000000
00000600
F0000B40
F0000B40
F0000F40
F0000F40
F0001F40
F0001F40
F0002F00
B0002F00
B0003F00
B0003F00
B0007F00
B000BB00
B000E700
B001D700
7002C740
74074340
3D1E0340
1FF80380
06900380
00000280
00000280
00000280
00000140
ENDCHAR
STARTCHAR uhungarumlaut
ENCODING 369
SWIDTH 387 0
DWIDTH 12 0
BBX 11 23 1 -1
BITMAP
008000
03C700
0F9F00
2E7D00
14B400
000000
500040
E001D0
E001D0
E001D0
E001D0
F001D0
B002D0
B002D0
B002D0
B003D0
B00BD0
740FD0
742EE0
38BCE0
2EF4B0
0FC0B4
010020
ENDCHAR
STARTCHAR Uogonek
ENCODING 370
SWIDTH 450 0
DWIDTH 14 0
BBX 16 29 1 -9
BITMAP
00000600
F0000B40
F0000B40
F0000F40
F0000F40
F0001F40
F0001F40
F0002F00
B0002F00
B0003F00
B0003F00
B0007F00
B000BB00
B000E700
B001D700
7002C740
74074340
3D1E0340
1FF80380
06900380
00000780
00001F80
00003E80
0000B540
0000B000
0000B000
0000B46E
00003FFD
00000AA0
ENDCHAR
STARTCHAR uogonek
ENCODING 371
SWIDTH 387 0
DWIDTH 12 0
BBX 13 24 1 -8
BITMAP
50004000
E001D000
E001D000
E001D000
E001D000
F001D000
B002D000
B002D000
B002D000
B003D000
B00BD000
740FD000
742EE000
38BCE000
2EF4B000
0FC1F400
0107E000
000F0000
001E0000
001D0000
001D0140
000F5BC0
0007FF40
00005400
ENDCHAR
STARTCHAR Wcircumflex
ENCODING 372
SWIDTH 878 0
DWIDTH 28 0
BBX 27 34 0 -1
BITMAP
00000060000000
000000F8000000
000001DE000000
00000387800000
00000B01D00000
00000D00B40000
00002C002D0000
000074000D0000
00006000000000
00000000000014
0000000000002C
00000000000038
00000000000074
1400001E0000B0
7C00002F0000B0
3D00002F4000E0
1E00003B8001D0
0F000077C002C0
0B4000B2D002C0
078000E1E00380
038001D0F00740
02C002C0B40B00
02D00380780B00
01E007403C0E00
00F00B001D1D00
00B40E000E1C00
00B81D000B6C00
007C2C0003B800
003D380002F400
002E780000F400
001FB400007000
000FF000000000
0007D000000000
00014000000000
ENDCHAR
STARTCHAR wcircumflex
ENCODING 373
SWIDTH 566 0
DWIDTH 18 0
BBX 16 30 1 0
BITMAP
00060000
000F8000
001DE000
00387800
00B01D00
00D00B40
02C002D0
074000D0
06000000
00000000
00000000
00000000
00000000
00050004
D00B400D
E00F800E
B40FD00E
781EB00E
3C1D780E
1D1D2D0E
0E2D0E0E
0B2D074E
07AD02CE
03FD01EE
02FC00BE
01FC003F
00FC001F
007C000B
00380000
00280000
ENDCHAR
STARTCHAR Ycircumflex
ENCODING 374
SWIDTH 483 0
DWIDTH 15 0
BBX 15 34 0 0
BITMAP
00060000
001F8000
002DD000
00747400
00A02D00
01D00B00
038003D0
070001D0
05000000
00000014
00000028
00000034
00000074
100000B0
B00000E0
380001D0
2E0002C0
0F400380
07D00740
01F00B00
00B80E00
002E1D00
000BFC00
0002F800
0000F400
0000F000
0001E000
0001D000
0002C000
00038000
00074000
000B0000
000E0000
000D0000
ENDCHAR
STARTCHAR ycircumflex
ENCODING 375
SWIDTH 363 0
DWIDTH 12 0
BBX 12 42 0 -12
BITMAP
006000
00F800
02DD00
074740
0A02D0
1D00B0
28003D
70001D
500000
000000
000000
000000
000000
000014
00001C
20002C
78002C
3D002C
1F002C
0B802C
03C03C
01E03C
00B438
003C38
002E38
000FB8
0007F8
0002F8
0000F8
000074
000074
000074
000074
000074
0000B0
0000B0
0000B0
0000B0
0000A0
0000E0
0000E0
0000E0
ENDCHAR
STARTCHAR Ydieresis
ENCODING 376
SWIDTH 483 0
DWIDTH 15 0
BBX 15 25 0 0
BITMAP
00000014
00282828
00787834
00000074
100000B0
B00000E0
380001D0
2E0002C0
0F400380
07D00740
01F00B00
00B80E00
002E1D00
000BFC00
0002F800
0000F400
0000F000
0001E000
0001D000
0002C000
00038000
00074000
000B0000
000E0000
000D0000
ENDCHAR
STARTCHAR Zacute
ENCODING 377
SWIDTH 670 0
DWIDTH 21 0
BBX 21 29 0 0
BITMAP
00000B000000
00002F000000
00007C000000
0000B0000000
000000000000
000000000000
000000000000
2AAAAAAA9000
1AAAAABFE000
00000007D000
0000001F4000
0000003E0000
000000B80000
000002F00000
000007D00000
00000F400000
00002E000000
0000B8000000
0001F0000000
0007D0000000
000F40000000
002E00000000
00B800000000
01F000000000
07D000000000
0F4000000000
2E5555556A40
7FFFFFFFFF80
3FAAAAAA5500
ENDCHAR
STARTCHAR zacute
ENCODING 378
SWIDTH 618 0
DWIDTH 20 0
BBX 20 24 1 -1
BITMAP
00001D0000
00007D0000
0000F40000
0001D00000
0000000000
0000000000
0000000000
00006E0000
001BFE0000
06FE6D0000
BF907C0000
6500B80000
0000F40000
0002E00000
0003C00000
000B400000
000E000000
001D000000
003C000014
0078005BFD
00B56BFFF9
00BFFFA500
00FE500000
0040000000
ENDCHAR
STARTCHAR Zdotaccent
ENCODING 379
SWIDTH 670 0
DWIDTH 21 0
BBX 21 26 0 0
BITMAP
000005000000
00001E000000
000004000000
000000000000
2AAAAAAA9000
1AAAAABFE000
00000007D000
0000001F4000
0000003E0000
000000B80000
000002F00000
000007D00000
00000F400000
00002E000000
0000B8000000
0001F0000000
0007D0000000
000F40000000
002E00000000
00B800000000
01F000000000
07D000000000
0F4000000000
2E5555556A40
7FFFFFFFFF80
3FAAAAAA5500
ENDCHAR
STARTCHAR zdotaccent
ENCODING 380
SWIDTH 618 0
DWIDTH 20 0
BBX 20 21 1 -1
BITMAP
0000500000
0001F00000
0000500000
0000000000
00006E0000
001BFE0000
06FE6D0000
BF907C0000
6500B80000
0000F40000
0002E00000
0003C00000
000B400000
000E000000
001D000000
003C000014
0078005BFD
00B56BFFF9
00BFFFA500
00FE500000
0040000000
ENDCHAR
STARTCHAR Zcaron
ENCODING 381
SWIDTH 670 0
DWIDTH 21 0
BBX 21 30 0 0
BITMAP
000900000000
000700078000
0002801E0000
0000E0740000
000076D00000
00002E000000
000004000000
000000000000
2AAAAAAA9000
1AAAAABFE000
00000007D000
0000001F4000
0000003E0000
000000B80000
000002F00000
000007D00000
00000F400000
00002E000000
0000B8000000
0001F0000000
0007D0000000
000F40000000
002E00000000
00B800000000
01F000000000
07D000000000
0F4000000000
2E5555556A40
7FFFFFFFFF80
3FAAAAAA5500
ENDCHAR
STARTCHAR zcaron
ENCODING 382
SWIDTH 618 0
DWIDTH 20 0
BBX 20 25 1 -1
BITMAP
0200000000
028002D000
00D00B4000
00742C0000
002DA00000
000B800000
0001000000
0000000000
00006E0000
001BFE0000
06FE6D0000
BF907C0000
6500B80000
0000F40000
0002E00000
0003C00000
000B400000
000E000000
001D000000
003C000014
0078005BFD
00B56BFFF9
00BFFFA500
00FE500000
0040000000
ENDCHAR
STARTCHAR florin
ENCODING 402
SWIDTH 345 0
DWIDTH 11 0
BBX 12 37 -1 -8
BITMAP
000500
002FC0
003FE0
007CB0
007830
00B410
00B400
00F400
00F000
00F000
00F000
00F000
00E005
00E0BE
00EBF9
01FE50
07E000
1EA000
00B000
00B000
00B000
00B000
00B000
00B400
00B400
00B400
00B400
00B400
00B800
007800
007800
007800
007800
007800
007800
6FF400
2FE000
ENDCHAR
STARTCHAR AEacute
ENCODING 508
SWIDTH 708 0
DWIDTH 23 0
BBX 22 30 1 0
BITMAP
000074000000
0001F0000000
0003D0000000
000740000000
000000000000
000000000000
0A0000001400
0F409006F800
0F81F06F8000
0FD0F7F80000
1EE0BF800000
1DB0B8000000
1D34B0000000
2C2870000000
2C1C70000000
2C0D74007400
3C0E74069000
380B746D0000
3807BAE00000
7803FE400000
7807FC000000
786FFC000000
BFE6FC0002D0
BE00FC001F40
B400BC00B800
A0007C07D000
E0003C6E0000
E0003FF40000
D0003F800000
400004000000
ENDCHAR
STARTCHAR aeacute
ENCODING 509
SWIDTH 705 0
DWIDTH 23 0
BBX 22 23 0 0
BITMAP
000000A00000
000002E00000
00000B800000
00000E000000
000000000000
0001401B9000
001FE0BFF800
003FF1F43D00
00F8F3D03D00
02E0E781F800
03D1FB4BD000
0B81FFBE0000
0F02FFE00000
1E07FF400010
2C0BFD0000F0
381E7D0002E0
743C3D0007C0
B0B83D001F40
E1F02D003D00
E3D02D01F000
BF802FAB8000
7E001EF90000
140004000000
ENDCHAR
STARTCHAR Oslashacute
ENCODING 510
SWIDTH 382 0
DWIDTH 12 0
BBX 12 31 0 -3
BITMAP
0001D0
0007C0
000F40
001D00
000000
000010
000674
007FF0
00FAF8
02D1FC
0781DD
0B429E
0F034E
1E070E
2D0A0E
2C0D0E
381C0E
382C1E
74381D
74742D
74B03C
B0E078
74D0B4
75C0F0
3A82D0
2F5B80
0FFE00
0BE400
0D0000
1C0000
040000
ENDCHAR
STARTCHAR oslashacute
ENCODING 511
SWIDTH 266 0
DWIDTH 9 0
BBX 9 27 0 -3
BITMAP
002800
00B800
02E000
038000
000000
000240
028740
0BEB00
0FBE00
1D1D00
282E00
283E00
347B00
34AB00
74DB00
75CB00
768F00
7B4E00
7F1E00
7E2D00
7C3800
38B400
3FD000
7E4000
A00000
D00000
400000
ENDCHAR
STARTCHAR Scommaaccent
ENCODING 536
SWIDTH 541 0
DWIDTH 17 0
BBX 17 34 0 -10
BITMAP
0000014000
0000BFC000
000B9BC000
002D010000
01F0000000
0780000000
0F00000000
2D00000000
3800000000
7400000000
B000000000
B000000000
7800000000
1E40000000
06FA950000
0016BFF900
0000005F40
0000000740
0000001F00
000001F800
00006F9000
001BF90000
00FE400000
0050000000
0000000000
0000000000
0000000000
0001D00000
0002E00000
0002E00000
0001D00000
0001D00000
0001C00000
0002800000
ENDCHAR
STARTCHAR scommaaccent
ENCODING 537
SWIDTH 366 0
DWIDTH 12 0
BBX 12 26 0 -10
BITMAP
002FE0
01FA90
078000
0F0000
2D0000
380000
340000
7406A4
3EBFFC
2FE46D
01002D
000078
0001F0
000BC0
007F00
01F800
019000
000000
000000
002800
007C00
007C00
003800
003800
007400
007000
ENDCHAR
STARTCHAR circumflex
ENCODING 710
SWIDTH 390 0
DWIDTH 13 0
BBX 11 9 1 21
BITMAP
009000
02F400
03AC00
0B0A00
1D0380
2801E0
740078
A00028
800000
ENDCHAR
STARTCHAR caron
ENCODING 711
SWIDTH 390 0
DWIDTH 13 0
BBX 11 7 2 19
BITMAP
800000
A000B4
3402D0
1D0B00
0B6800
02E000
004000
ENDCHAR
STARTCHAR breve
ENCODING 728
SWIDTH 390 0
DWIDTH 13 0
BBX 8 5 2 19
BITMAP
0006
A00F
787D
1FF8
0690
ENDCHAR
STARTCHAR dotaccent
ENCODING 729
SWIDTH 128 0
DWIDTH 4 0
BBX 3 3 0 17
BITMAP
14
7C
14
ENDCHAR
STARTCHAR ring
ENCODING 730
SWIDTH 266 0
DWIDTH 9 0
BBX 8 6 0 16
BITMAP
05A4
2FFD
780F
740B
3D6E
1BE4
ENDCHAR
STARTCHAR ogonek
ENCODING 731
SWIDTH 366 0
DWIDTH 12 0
BBX 8 9 3 -8
BITMAP
0500
1F00
7800
B400
E000
E000
B06D
7FFD
1A90
ENDCHAR
STARTCHAR tilde
ENCODING 732
SWIDTH 458 0
DWIDTH 15 0
BBX 13 6 1 17
BITMAP
0AA00100
3EB80F40
B43C2E00
B01EBC00
000BE000
00014000
ENDCHAR
STARTCHAR hungarumlaut
ENCODING 733
SWIDTH 239 0
DWIDTH 8 0
BBX 8 6 0 14
BITMAP
0200
0F5D
2E7C
78F4
51D0
0040
ENDCHAR
STARTCHAR Wgrave
ENCODING 7808
SWIDTH 878 0
DWIDTH 28 0
BBX 27 32 0 -1
BITMAP
00000010000000
00000074000000
0000003D000000
0000001E000000
00000007000000
00000000000000
00000000000000
00000000000014
0000000000002C
00000000000038
00000000000074
1400001E0000B0
7C00002F0000B0
3D00002F4000E0
1E00003B8001D0
0F000077C002C0
0B4000B2D002C0
078000E1E00380
038001D0F00740
02C002C0B40B00
02D00380780B00
01E007403C0E00
00F00B001D1D00
00B40E000E1C00
00B81D000B6C00
007C2C0003B800
003D380002F400
002E780000F400
001FB400007000
000FF000000000
0007D000000000
00014000000000
ENDCHAR
STARTCHAR wgrave
ENCODING 7809
SWIDTH 566 0
DWIDTH 18 0
BBX 16 24 1 0
BITMAP
00080000
000E0000
000B4000
0003C000
0001C000
00000000
00000000
00050004
D00B400D
E00F800E
B40FD00E
781EB00E
3C1D780E
1D1D2D0E
0E2D0E0E
0B2D074E
07AD02CE
03FD01EE
02FC00BE
01FC003F
00FC001F
007C000B
00380000
00280000
ENDCHAR
STARTCHAR Wacute
ENCODING 7810
SWIDTH 878 0
DWIDTH 28 0
BBX 27 30 0 -1
BITMAP
0000002C000000
000000B8000000
000001F0000000
000002C0000000
00000000000000
00000000000014
0000000000002C
00000000000038
00000000000074
1400001E0000B0
7C00002F0000B0
3D00002F4000E0
1E00003B8001D0
0F000077C002C0
0B4000B2D002C0
078000E1E00380
038001D0F00740
02C002C0B40B00
02D00380780B00
01E007403C0E00
00F00B001D1D00
00B40E000E1C00
00B81D000B6C00
007C2C0003B800
003D380002F400
002E780000F400
001FB400007000
000FF000000000
0007D000000000
00014000000000
ENDCHAR
STARTCHAR wacute
ENCODING 7811
SWIDTH 566 0
DWIDTH 18 0
BBX 16 23 1 0
BITMAP
00003800
0000F400
0002E000
00038000
00000000
00000000
00050004
D00B400D
E00F800E
B40FD00E
781EB00E
3C1D780E
1D1D2D0E
0E2D0E0E
0B2D074E
07AD02CE
03FD01EE
02FC00BE
01FC003F
00FC001F
007C000B
00380000
00280000
ENDCHAR
STARTCHAR Wdieresis
ENCODING 7812
SWIDTH 878 0
DWIDTH 28 0
BBX 27 28 0 -1
BITMAP
000001D1900000
000002D2D00000
00000000000000
00000000000014
0000000000002C
00000000000038
00000000000074
1400001E0000B0
7C00002F0000B0
3D00002F4000E0
1E00003B8001D0
0F000077C002C0
0B4000B2D002C0
078000E1E00380
038001D0F00740
02C002C0B40B00
02D00380780B00
01E007403C0E00
00F00B001D1D00
00B40E000E1C00
00B81D000B6C00
007C2C0003B800
003D380002F400
002E780000F400
001FB400007000
000FF000000000
0007D000000000
00014000000000
ENDCHAR
STARTCHAR wdieresis
ENCODING 7813
SWIDTH 566 0
DWIDTH 18 0
BBX 16 24 1 0
BITMAP
002C2D00
003C3D00
00000000
00000000
00000000
00000000
00000000
00050004
D00B400D
E00F800E
B40FD00E
781EB00E
3C1D780E
1D1D2D0E
0E2D0E0E
0B2D074E
07AD02CE
03FD01EE
02FC00BE
01FC003F
00FC001F
007C000B
00380000
00280000
ENDCHAR
STARTCHAR Ygrave
ENCODING 7922
SWIDTH 483 0
DWIDTH 15 0
BBX 15 32 0 0
BITMAP
00040000
000E0000
000B8000
0003C000
0000D000
00000000
00000000
00000014
00000028
00000034
00000074
100000B0
B00000E0
380001D0
2E0002C0
0F400380
07D00740
01F00B00
00B80E00
002E1D00
000BFC00
0002F800
0000F400
0000F000
0001E000
0001D000
0002C000
00038000
00074000
000B0000
000E0000
000D0000
ENDCHAR
STARTCHAR ygrave
ENCODING 7923
SWIDTH 363 0
DWIDTH 12 0
BBX 11 36 0 -12
BITMAP
004000
01D000
00F000
007800
001800
000000
000000
000014
00001C
20002C
78002C
3D002C
1F002C
0B802C
03C03C
01E03C
00B438
003C38
002E38
000FB8
0007F8
0002F8
0000F8
000074
000074
000074
000074
000074
0000B0
0000B0
0000B0
0000B0
0000A0
0000E0
0000E0
0000E0
ENDCHAR
STARTCHAR endash
ENCODING 8211
SWIDTH 399 0
DWIDTH 13 0
BBX 12 5 0 6
BITMAP
000005
0001BF
002FF9
16FE40
7E5000
ENDCHAR
STARTCHAR emdash
ENCODING 8212
SWIDTH 549 0
DWIDTH 18 0
BBX 16 4 0 6
BITMAP
0000016A
0005BFFE
16BFFA50
7FA50000
ENDCHAR
STARTCHAR quoteleft
ENCODING 8216
SWIDTH 155 0
DWIDTH 5 0
BBX 3 9 1 11
BITMAP
A0
F0
B0
B4
B4
70
70
70
30
ENDCHAR
STARTCHAR quoteright
ENCODING 8217
SWIDTH 155 0
DWIDTH 5 0
BBX 3 9 1 11
BITMAP
A0
F0
B0
B4
B4
70
70
70
30
ENDCHAR
STARTCHAR quotesinglbase
ENCODING 8218
SWIDTH 155 0
DWIDTH 5 0
BBX 3 9 1 0
BITMAP
60
B4
B4
74
74
74
34
34
24
ENDCHAR
STARTCHAR quotedblleft
ENCODING 8220
SWIDTH 212 0
DWIDTH 7 0
BBX 5 10 1 16
BITMAP
4000
D140
D280
E280
A280
A280
A280
A280
6180
6000
ENDCHAR
STARTCHAR quotedblright
ENCODING 8221
SWIDTH 212 0
DWIDTH 7 0
BBX 5 10 1 16
BITMAP
4000
D140
D280
E280
A280
A280
A280
A280
6180
6000
ENDCHAR
STARTCHAR quotedblbase
ENCODING 8222
SWIDTH 212 0
DWIDTH 7 0
BBX 5 9 1 0
BITMAP
D140
E280
E280
A280
A280
A280
7280
7180
3000
ENDCHAR
STARTCHAR dagger
ENCODING 8224
SWIDTH 268 0
DWIDTH 9 0
BBX 10 26 -1 -1
BITMAP
010000
03C000
038000
038000
038000
038000
038000
0381A0
03FFE0
1BFE00
BFD000
FF8000
578000
078000
078000
038000
038000
038000
038000
03C000
03C000
02C000
02C000
02C000
02C000
018000
ENDCHAR
STARTCHAR daggerdbl
ENCODING 8225
SWIDTH 326 0
DWIDTH 10 0
BBX 11 26 0 -1
BITMAP
004000
01D000
01D000
01D000
01D000
01D000
01C000
01C1A0
01EFF4
07FE40
7FE400
7FC000
12C5B4
02FFE4
1BF900
7FD000
12D000
02D000
01D000
01D000
01D000
01D000
00E000
00E000
00E000
009000
ENDCHAR
STARTCHAR bullet
ENCODING 8226
SWIDTH 189 0
DWIDTH 6 0
BBX 4 5 1 7
BITMAP
19
7F
BF
BE
28
ENDCHAR
STARTCHAR ellipsis
ENCODING 8230
SWIDTH 387 0
DWIDTH 12 0
BBX 11 2 1 0
BITMAP
B0B4B4
F0F0B4
ENDCHAR
STARTCHAR guilsinglleft
ENCODING 8249
SWIDTH 409 0
DWIDTH 13 0
BBX 12 16 1 4
BITMAP
00000A
00003D
0001F8
0007E0
002F40
00BD00
03E000
1F4000
7C0000
7D0000
1F8000
07F400
00BE00
001BE4
0001FC
000024
ENDCHAR
STARTCHAR guilsinglright
ENCODING 8250
SWIDTH 450 0
DWIDTH 14 0
BBX 12 17 1 4
BITMAP
740000
7F4000
1BE000
01BE00
001FD0
0001F8
00002D
00001D
000038
0000B4
0007D0
001F40
00BD00
03F400
1F8000
3E0000
740000
ENDCHAR
STARTCHAR fraction
ENCODING 8260
SWIDTH 306 0
DWIDTH 10 0
BBX 9 26 0 -3
BITMAP
000140
000280
000340
000700
000A00
000D00
001C00
002C00
003800
007400
00B000
00E000
01D000
01C000
028000
034000
070000
0A0000
0D0000
1C0000
280000
380000
740000
B00000
A00000
500000
ENDCHAR
STARTCHAR Euro
ENCODING 8364
SWIDTH 589 0
DWIDTH 19 0
BBX 18 25 0 -1
BITMAP
0000014000
00001FE000
000079B400
0000E01800
0002C00000
0003800000
000B000000
000E000000
001D000000
001C000000
002D5A0000
1AFFF80000
3FF9000000
0070000000
00B0168000
00B6FF4000
05FE940000
BFE0000000
64E00000A0
00A00001F0
00B00007D0
0078006F40
002EABF900
000BFF9000
0000540000
ENDCHAR
STARTCHAR trademark
ENCODING 8482
SWIDTH 1278 0
DWIDTH 41 0
BBX 40 25 0 0
BITMAP
00000000005000000040
0000000000F8000002D0
0000090005FE000003D0
00001FABFFFF400007D0
056BFFFA9573C0000AD0
7FFA5F000071D0000DE0
69400F000070F0001CA0
00000B00003078001CA0
00000B0000342C0028A0
0000070000341D0034B0
0000074000340B007070
0000074000380740A070
00000740003802C0D070
00000380003801E1C074
00000380003C00F28034
000003C0003C007B4034
000002C0002C003E0038
000002C0002C001D0038
000002D0002D00040028
000002D0002D0000002C
000001D0002D0000002C
000001E0002E0000001D
000000E0002E0000001E
000000E0002E0000001E
000000A0001D00000019
ENDCHAR
STARTCHAR minus
ENCODING 8722
SWIDTH 358 0
DWIDTH 11 0
BBX 10 3 1 8
BITMAP
000550
6BFFE0
6A9550
ENDCHAR
STARTCHAR commaaccent
ENCODING 63171
SWIDTH 450 0
DWIDTH 14 0
BBX 3 7 5 -10
BITMAP
74
B8
78
78
74
74
70
ENDCHAR
STARTCHAR fi
ENCODING 64257
SWIDTH 409 0
DWIDTH 13 0
BBX 12 30 0 -1
BITMAP
001400
00BF00
00FF80
01F2C0
01E0C0
02D054
02D028
03D004
03C000
03C000
03C000
03C01D
03801D
0382FD
03AFFD
07FE5D
1F801D
7B801D
02C01D
02C01D
02C01D
02C01D
02D01D
01D01D
01D01D
01E01D
01E01D
01E01D
00D00D
000004
ENDCHAR
STARTCHAR fl
ENCODING 64258
SWIDTH 416 0
DWIDTH 13 0
BBX 12 29 0 0
BITMAP
001400
00BF00
00FF94
01F2EC
01E0DC
02D05C
02D01D
03D00D
03C00D
03C00D
03C00E
03C00A
03801E
0382FE
03AFFA
07FE4A
1F800A
7B800B
02C00B
02C00B
02C00B
02C00B
02D00B
01D00B
01D00B
01E00B
01E00B
01E00F
00D00B
ENDCHAR
STARTCHAR .notdef
ENCODING -1
SWIDTH 450 0
DWIDTH 14 0
BBX 1 1 0 0
BITMAP
00
ENDCHAR
STARTCHAR .null
ENCODING -1
SWIDTH 0 0
DWIDTH 0 0
BBX 1 1 0 0
BITMAP
00
ENDCHAR
STARTCHAR nonmarkingreturn
ENCODING -1
SWIDTH 450 0
DWIDTH 14 0
BBX 1 1 0 0
BITMAP
00
ENDCHAR
ENDFONT
